<svg width="179" height="52" viewBox="0 0 179 52" fill="none" xmlns="http://www.w3.org/2000/svg">
<g clip-path="url(#clip0_493_336)">
<path d="M172.37 52H6.62963C2.98499 52 0 49.0733 0 45.5V6.5C0 2.92663 2.98499 0 6.62963 0H172.37C176.015 0 179 2.92663 179 6.5V45.5C179 49.0733 176.015 52 172.37 52Z" fill="black"/>
<path d="M172.37 1.04162C175.44 1.04162 177.938 3.4905 177.938 6.5V45.5C177.938 48.5097 175.44 50.9583 172.37 50.9583H6.62963C3.56011 50.9583 1.0624 48.5097 1.0624 45.5V6.5C1.0624 3.4905 3.56011 1.04162 6.62963 1.04162H172.37ZM172.37 0H6.62963C2.98499 0 0 2.92663 0 6.5V45.5C0 49.0733 2.98499 52 6.62963 52H172.37C176.015 52 179 49.0733 179 45.5V6.5C179 2.92663 176.015 0 172.37 0Z" fill="#A6A6A6"/>
<path d="M13.8356 9.80032C13.4461 10.2001 13.2207 10.8225 13.2207 11.6285V40.378C13.2207 41.184 13.4461 41.8063 13.8356 42.206L13.9317 42.294L30.3633 26.1901V25.8098L13.9317 9.70605L13.8356 9.80032Z" fill="url(#paint0_linear_493_336)"/>
<path d="M35.8344 31.561L30.3633 26.1903V25.8101L35.841 20.4395L35.9637 20.5093L42.4508 24.1282C44.3021 25.1552 44.3021 26.8452 42.4508 27.8787L35.9637 31.4911L35.8344 31.561Z" fill="url(#paint1_linear_493_336)"/>
<path d="M35.964 31.4909L30.3636 26L13.8359 42.206C14.4508 42.84 15.4536 42.9163 16.5939 42.2823L35.964 31.4909Z" fill="url(#paint2_linear_493_336)"/>
<path d="M35.964 20.5091L16.5939 9.71749C15.4536 9.09026 14.4508 9.16662 13.8359 9.80036L30.3636 26L35.964 20.5091Z" fill="url(#paint3_linear_493_336)"/>
<path d="M62.8718 13.3167C62.8718 14.4022 62.5403 15.2715 61.8873 15.9199C61.1365 16.6885 60.1586 17.0753 58.9603 17.0753C57.8151 17.0753 56.8372 16.682 56.035 15.9069C55.2312 15.1204 54.8301 14.1552 54.8301 12.9998C54.8301 11.8444 55.2312 10.8792 56.035 10.0992C56.8372 9.31758 57.8151 8.92432 58.9603 8.92432C59.5305 8.92432 60.0741 9.03968 60.5929 9.25418C61.11 9.47032 61.531 9.76282 61.8359 10.1235L61.1431 10.8093C60.6111 10.1934 59.8868 9.88958 58.9603 9.88958C58.125 9.88958 57.4007 10.1755 56.7858 10.7524C56.1775 11.3309 55.8726 12.08 55.8726 12.9998C55.8726 13.9195 56.1775 14.6752 56.7858 15.2537C57.4007 15.824 58.125 16.1165 58.9603 16.1165C59.847 16.1165 60.5929 15.824 61.1813 15.2472C61.5691 14.8653 61.7895 14.3388 61.8475 13.666H58.9603V12.7268H62.8122C62.8586 12.9299 62.8718 13.1265 62.8718 13.3167Z" fill="white" stroke="white" stroke-width="0.16" stroke-miterlimit="10"/>
<path d="M68.9832 10.0602H65.3651V12.5302H68.6269V13.4694H65.3651V15.9394H68.9832V16.8965H64.3408V9.10303H68.9832V10.0602Z" fill="white" stroke="white" stroke-width="0.16" stroke-miterlimit="10"/>
<path d="M73.2953 16.8965H72.271V10.0602H70.0518V9.10303H75.5162V10.0602H73.2953V16.8965Z" fill="white" stroke="white" stroke-width="0.16" stroke-miterlimit="10"/>
<path d="M79.4707 16.8965V9.10303H80.4933V16.8965H79.4707Z" fill="white" stroke="white" stroke-width="0.16" stroke-miterlimit="10"/>
<path d="M85.0268 16.8965H84.0108V10.0602H81.7832V9.10303H87.2543V10.0602H85.0268V16.8965Z" fill="white" stroke="white" stroke-width="0.16" stroke-miterlimit="10"/>
<path d="M97.5996 15.8939C96.8157 16.682 95.8444 17.0753 94.6859 17.0753C93.5207 17.0753 92.5495 16.682 91.7655 15.8939C90.9832 15.1074 90.5938 14.1422 90.5938 12.9998C90.5938 11.8574 90.9832 10.8922 91.7655 10.1057C92.5495 9.31755 93.5207 8.92432 94.6859 8.92432C95.8378 8.92432 96.809 9.31755 97.593 10.1122C98.3819 10.9052 98.7714 11.8639 98.7714 12.9998C98.7714 14.1422 98.3819 15.1074 97.5996 15.8939ZM92.523 15.2407C93.113 15.824 93.8307 16.1165 94.6859 16.1165C95.5345 16.1165 96.2588 15.824 96.8422 15.2407C97.4306 14.6573 97.7289 13.9082 97.7289 12.9998C97.7289 12.0914 97.4306 11.3423 96.8422 10.7589C96.2588 10.1756 95.5345 9.88305 94.6859 9.88305C93.8307 9.88305 93.113 10.1756 92.523 10.7589C91.9346 11.3423 91.6363 12.0914 91.6363 12.9998C91.6363 13.9082 91.9346 14.6573 92.523 15.2407Z" fill="white" stroke="white" stroke-width="0.16" stroke-miterlimit="10"/>
<path d="M100.209 16.8965V9.10303H101.452L105.317 15.1643H105.362L105.317 13.666V9.10303H106.34V16.8965H105.272L101.225 10.5363H101.18L101.225 12.041V16.8965H100.209Z" fill="white" stroke="white" stroke-width="0.16" stroke-miterlimit="10"/>
<path d="M90.342 28.2783C87.2277 28.2783 84.6836 30.602 84.6836 33.808C84.6836 36.9883 87.2277 39.3363 90.342 39.3363C93.4629 39.3363 96.007 36.9883 96.007 33.808C96.007 30.602 93.4629 28.2783 90.342 28.2783ZM90.342 37.159C88.6332 37.159 87.1631 35.776 87.1631 33.808C87.1631 31.8143 88.6332 30.4558 90.342 30.4558C92.0508 30.4558 93.5275 31.8143 93.5275 33.808C93.5275 35.776 92.0508 37.159 90.342 37.159ZM77.996 28.2783C74.8751 28.2783 72.3376 30.602 72.3376 33.808C72.3376 36.9883 74.8751 39.3363 77.996 39.3363C81.1152 39.3363 83.6543 36.9883 83.6543 33.808C83.6543 30.602 81.1152 28.2783 77.996 28.2783ZM77.996 37.159C76.2855 37.159 74.8104 35.776 74.8104 33.808C74.8104 31.8143 76.2855 30.4558 77.996 30.4558C79.7047 30.4558 81.1749 31.8143 81.1749 33.808C81.1749 35.776 79.7047 37.159 77.996 37.159ZM63.3047 29.9731V32.3229H69.0277C68.8603 33.636 68.4128 34.601 67.7267 35.274C66.8913 36.0863 65.5903 36.9883 63.3047 36.9883C59.7827 36.9883 57.0248 34.2013 57.0248 30.7483C57.0248 27.2952 59.7827 24.5083 63.3047 24.5083C65.2091 24.5083 66.5946 25.2379 67.6173 26.1837L69.3062 24.5278C67.8758 23.1888 65.9731 22.1602 63.3047 22.1602C58.475 22.1602 54.416 26.013 54.416 30.7483C54.416 35.4837 58.475 39.3363 63.3047 39.3363C65.9151 39.3363 67.8758 38.498 69.4172 36.925C70.9967 35.3763 71.489 33.1988 71.489 31.4405C71.489 30.8945 71.4426 30.3924 71.3597 29.9731H63.3047ZM123.379 31.7948C122.913 30.5582 121.476 28.2783 118.549 28.2783C115.649 28.2783 113.234 30.5192 113.234 33.808C113.234 36.9053 115.624 39.3363 118.828 39.3363C121.418 39.3363 122.913 37.7877 123.528 36.886L121.606 35.6297C120.964 36.5497 120.091 37.159 118.828 37.159C117.573 37.159 116.673 36.595 116.096 35.4837L123.639 32.4236L123.379 31.7948ZM115.689 33.636C115.624 31.5039 117.378 30.4119 118.634 30.4119C119.618 30.4119 120.454 30.8945 120.732 31.5852L115.689 33.636ZM109.558 39H112.037V22.75H109.558V39ZM105.497 29.51H105.414C104.858 28.8633 103.795 28.2783 102.449 28.2783C99.6251 28.2783 97.0429 30.7093 97.0429 33.826C97.0429 36.925 99.6251 39.3363 102.449 39.3363C103.795 39.3363 104.858 38.7467 105.414 38.0803H105.497V38.8733C105.497 40.9873 104.345 42.1233 102.487 42.1233C100.973 42.1233 100.033 41.0507 99.645 40.149L97.4887 41.0313C98.1102 42.497 99.7561 44.3007 102.487 44.3007C105.395 44.3007 107.848 42.6237 107.848 38.5433V28.6147H105.497V29.51ZM102.661 37.159C100.953 37.159 99.5224 35.7567 99.5224 33.826C99.5224 31.8776 100.953 30.4558 102.661 30.4558C104.345 30.4558 105.673 31.8776 105.673 33.826C105.673 35.7567 104.345 37.159 102.661 37.159ZM134.988 22.75H129.057V39H131.53V32.8429H134.988C137.734 32.8429 140.427 30.8945 140.427 27.7957C140.427 24.6984 137.727 22.75 134.988 22.75ZM135.052 30.5825H131.53V25.0104H135.052C136.899 25.0104 137.953 26.5135 137.953 27.7957C137.953 29.0534 136.899 30.5825 135.052 30.5825ZM150.338 28.2474C148.552 28.2474 146.694 29.0209 145.93 30.7353L148.124 31.6371C148.597 30.7353 149.465 30.4428 150.383 30.4428C151.666 30.4428 152.967 31.1984 152.987 32.5325V32.7031C152.54 32.4497 151.582 32.0743 150.403 32.0743C148.04 32.0743 145.631 33.35 145.631 35.7307C145.631 37.908 147.567 39.3103 149.743 39.3103C151.408 39.3103 152.326 38.5743 152.902 37.718H152.987V38.974H155.375V32.7405C155.375 29.8594 153.181 28.2474 150.338 28.2474ZM150.04 37.1523C149.231 37.1523 148.104 36.759 148.104 35.776C148.104 34.5183 149.51 34.0357 150.726 34.0357C151.815 34.0357 152.326 34.2713 152.987 34.5817C152.793 36.0863 151.472 37.1523 150.04 37.1523ZM164.077 28.6033L161.234 35.6477H161.15L158.211 28.6033H155.544L159.96 38.4477L157.44 43.9253H160.024L166.828 28.6033H164.077ZM141.786 39H144.266V22.75H141.786V39Z" fill="white"/>
</g>
<defs>
<linearGradient id="paint0_linear_493_336" x1="28.9044" y1="40.6773" x2="7.09148" y2="18.4295" gradientUnits="userSpaceOnUse">
<stop stop-color="#00A0FF"/>
<stop offset="0.0066" stop-color="#00A1FF"/>
<stop offset="0.2601" stop-color="#00BEFF"/>
<stop offset="0.5122" stop-color="#00D2FF"/>
<stop offset="0.7604" stop-color="#00DFFF"/>
<stop offset="1" stop-color="#00E3FF"/>
</linearGradient>
<linearGradient id="paint1_linear_493_336" x1="44.8613" y1="25.9984" x2="12.7782" y2="25.9984" gradientUnits="userSpaceOnUse">
<stop stop-color="#FFE000"/>
<stop offset="0.4087" stop-color="#FFBD00"/>
<stop offset="0.7754" stop-color="#FFA500"/>
<stop offset="1" stop-color="#FF9C00"/>
</linearGradient>
<linearGradient id="paint2_linear_493_336" x1="32.9187" y1="23.0151" x2="3.33865" y2="-7.15486" gradientUnits="userSpaceOnUse">
<stop stop-color="#FF3A44"/>
<stop offset="1" stop-color="#C31162"/>
</linearGradient>
<linearGradient id="paint3_linear_493_336" x1="9.67558" y1="51.771" x2="22.8844" y2="38.2989" gradientUnits="userSpaceOnUse">
<stop stop-color="#32A071"/>
<stop offset="0.0685" stop-color="#2DA771"/>
<stop offset="0.4762" stop-color="#15CF74"/>
<stop offset="0.8009" stop-color="#06E775"/>
<stop offset="1" stop-color="#00F076"/>
</linearGradient>
<clipPath id="clip0_493_336">
<rect width="179" height="52" fill="white"/>
</clipPath>
</defs>
</svg>
