<svg width="17" height="20" viewBox="0 0 17 20" fill="none" xmlns="http://www.w3.org/2000/svg">
<path d="M8.42015 1.57373C11.3723 4.04424 14.7582 3.89097 15.7277 3.89097C15.5126 17.9367 13.8871 15.1524 8.42015 19.0899C2.95318 15.1524 1.33131 17.9367 1.13086 3.89097C2.07482 3.89097 5.4607 4.04424 8.42015 1.57373Z" stroke="#007BFF"/>
<path d="M10.5271 7.53701L7.20583 10.8388L6.39117 10.029C6.33087 9.96124 6.25577 9.90817 6.17163 9.8738C6.08749 9.83943 5.99655 9.82469 5.90578 9.8307C5.81502 9.83672 5.72685 9.86333 5.64804 9.9085C5.56923 9.95367 5.50189 10.0162 5.45117 10.0913C5.36014 10.2163 5.3165 10.3692 5.32797 10.5232C5.33944 10.6771 5.40527 10.822 5.51384 10.9323L6.76716 12.1471C6.82293 12.2075 6.89072 12.2558 6.96624 12.2888C7.04175 12.3218 7.12334 12.3388 7.20583 12.3388C7.28832 12.3388 7.36991 12.3218 7.44542 12.2888C7.52093 12.2558 7.58872 12.2075 7.64449 12.1471L11.4045 8.40919C11.495 8.28922 11.5389 8.14082 11.5282 7.99124C11.5175 7.84165 11.4529 7.70092 11.3463 7.59488C11.2396 7.48884 11.098 7.42461 10.9476 7.41398C10.7971 7.40335 10.6478 7.44704 10.5271 7.53701Z" fill="#007BFF"/>
</svg>
