<svg width="30" height="18" viewBox="0 0 30 18" fill="none" xmlns="http://www.w3.org/2000/svg">
<path d="M7.49173 2.30481C3.85244 2.30481 0.895508 5.26174 0.895508 8.90103C0.895508 12.5403 3.85244 15.4973 7.49173 15.4973C11.131 15.4973 14.088 12.5403 14.088 8.90103C14.088 5.26174 11.131 2.30481 7.49173 2.30481ZM7.49173 14.178C4.5803 14.178 2.19201 11.8125 2.19201 8.87829C2.19201 5.94411 4.5803 3.60131 7.49173 3.60131C10.4032 3.60131 12.7915 5.96685 12.7915 8.90103C12.746 11.8125 10.3804 14.178 7.49173 14.178ZM10.7898 7.60454C10.6761 7.39982 10.4032 7.26335 10.1302 7.42257L7.78742 8.46887V5.6939C7.78742 5.53469 7.74193 5.42096 7.62821 5.30723C7.53722 5.21625 7.4235 5.1935 7.28702 5.1935C7.03682 5.1935 6.76387 5.37547 6.76387 5.6939V9.31046C6.76387 9.51517 6.8776 9.69713 7.05957 9.78811C7.15055 9.8336 7.21878 9.85635 7.30977 9.85635C7.40075 9.85635 7.46899 9.8336 7.55997 9.78811L10.5851 8.35514C10.7216 8.2869 10.8126 8.17317 10.8581 8.0367C10.8581 7.90023 10.8581 7.74101 10.7898 7.60454Z" fill="#007BFF"/>
<path d="M21.9243 6.15693L22.2065 5.36404L21.4241 4.91667C21.4589 4.61521 21.4433 4.31993 21.3695 4.05226L22.1064 3.54189L21.7474 2.78648L20.8863 3.03536C20.704 2.80149 20.4849 2.60284 20.2507 2.44706L20.398 1.55793L19.6051 1.27581L19.1578 2.0582C18.8563 2.02336 18.561 2.03901 18.2933 2.11277L17.783 1.3759L17.0276 1.73483L17.2764 2.59594C17.0426 2.7783 16.8439 2.99733 16.6881 3.23161L15.799 3.08425L15.5169 3.87714L16.2993 4.32451C16.2644 4.62597 16.2801 4.92125 16.3539 5.18892L15.617 5.6993L15.9759 6.45471L16.837 6.20582C17.0194 6.4397 17.2384 6.63834 17.4727 6.79413L17.3253 7.68325L18.1182 7.96537L18.5656 7.18299C18.8671 7.21782 19.1623 7.20217 19.43 7.12841L19.9404 7.86528L20.6958 7.50636L20.4469 6.64524C20.6808 6.46289 20.8794 6.24386 21.0352 6.00958L21.9243 6.15693ZM18.3973 5.89184C17.6901 5.64022 17.3388 4.86338 17.5828 4.17764C17.8268 3.49189 18.6113 3.11916 19.297 3.36315C20.0042 3.61477 20.3555 4.39161 20.1115 5.07735C19.8675 5.7631 19.1045 6.14346 18.3973 5.89184ZM25.8429 12.7177L27.0422 12.4684L26.9934 11.3163L25.7875 11.177C25.68 10.8007 25.5219 10.4306 25.2767 10.102L25.9304 9.07913L25.0895 8.32124L24.1249 9.06445C23.7835 8.87054 23.3978 8.73329 23.0106 8.66796L22.7537 7.49014L21.6016 7.53894L21.4623 8.74477C21.086 8.85232 20.7159 9.01036 20.3873 9.25555L19.3644 8.60191L18.6065 9.4428L19.3497 10.4074C19.1558 10.7488 19.0186 11.1345 18.9533 11.5217L17.754 11.771L17.8028 12.9231L19.0086 13.0624C19.1162 13.4387 19.2742 13.8087 19.5194 14.1374L18.8658 15.1602L19.7067 15.9181L20.6712 15.1749C21.0127 15.3688 21.3984 15.5061 21.7856 15.5714L22.0425 16.7492L23.1946 16.7004L23.3339 15.4946C23.7101 15.387 24.0802 15.229 24.4089 14.9838L25.4317 15.6375L26.1896 14.7966L25.4464 13.832C25.648 13.4691 25.7776 13.1048 25.8429 12.7177ZM23.7444 13.323C23.0675 14.072 21.9154 14.1208 21.1664 13.4439C20.4175 12.767 20.3687 11.6149 21.0456 10.8659C21.7225 10.1169 22.8745 10.0681 23.6235 10.745C24.3725 11.4219 24.4428 12.5816 23.7444 13.323Z" fill="#007BFF"/>
</svg>
