<svg width="21" height="18" viewBox="0 0 21 18" fill="none" xmlns="http://www.w3.org/2000/svg">
<path d="M10.7098 4.99741C12.0133 4.99741 13.07 3.94071 13.07 2.6372C13.07 1.33368 12.0133 0.276978 10.7098 0.276978C9.40631 0.276978 8.34961 1.33368 8.34961 2.6372C8.34961 3.94071 9.40631 4.99741 10.7098 4.99741Z" fill="#007BFF"/>
<path d="M18.9719 9.13064L16.7721 8.67177C16.0227 8.51478 15.2828 8.85828 14.8916 9.46894C14.5117 9.27379 14.1031 9.1055 13.6685 8.96585V7.65778C13.6694 6.66808 12.8592 5.85876 11.873 5.85876H9.62384C8.6324 5.85876 7.82571 6.66808 7.82571 7.65778V8.97276C7.39548 9.10981 6.99126 9.27809 6.60872 9.47413C6.21754 8.86085 5.47675 8.51478 4.72643 8.67177L2.52493 9.13064C1.55863 9.33274 0.931478 10.2912 1.13358 11.261L1.68614 13.9005C1.88652 14.8677 2.84586 15.4948 3.81305 15.2927L4.50956 15.147C4.85824 15.6622 5.34055 16.135 5.95813 16.5392C7.24448 17.3823 8.94377 17.8472 10.7471 17.8472C13.5063 17.8472 15.883 16.7378 16.9777 15.1444L17.6855 15.2927C18.6518 15.4939 19.6112 14.8677 19.8115 13.9005L20.3649 11.261C20.5662 10.2912 19.939 9.33274 18.9719 9.13064ZM10.7462 16.946C9.1172 16.946 7.59055 16.5357 6.45165 15.7854C6.06131 15.5304 5.73777 15.2468 5.47844 14.9432L6.01189 14.8312C6.97992 14.63 7.60707 13.6715 7.40497 12.7035L6.90967 10.3302C7.19852 10.175 7.50212 10.0388 7.82478 9.92257V10.3554C7.82478 11.3434 8.63321 12.1527 9.62291 12.1527H11.8721C12.8592 12.1527 13.6677 11.3426 13.6677 10.3554V9.90002C13.9964 10.0171 14.3052 10.1516 14.5915 10.3042L14.0892 12.7044C13.8888 13.6724 14.5151 14.6309 15.4831 14.8321L16.0218 14.9449C15.0173 16.1341 13.0301 16.946 10.7462 16.946Z" fill="#007BFF"/>
<path d="M18.495 8.1002C19.7985 8.1002 20.8552 7.04349 20.8552 5.73998C20.8552 4.43647 19.7985 3.37976 18.495 3.37976C17.1915 3.37976 16.1348 4.43647 16.1348 5.73998C16.1348 7.04349 17.1915 8.1002 18.495 8.1002Z" fill="#007BFF"/>
<path d="M3.48608 8.05075C4.7629 7.78358 5.57829 6.53193 5.31458 5.25596C5.04568 3.98087 3.7966 3.16203 2.5189 3.4292C1.24381 3.69548 0.424966 4.94628 0.692136 6.22226C0.958462 7.49908 2.20926 8.31708 3.48608 8.05075Z" fill="#007BFF"/>
</svg>
