<svg width="17" height="18" viewBox="0 0 17 18" fill="none" xmlns="http://www.w3.org/2000/svg">
<path d="M8.6202 14.4332C8.60654 14.4332 8.59257 14.4311 8.57919 14.4273C8.55527 14.4198 8.53387 14.4058 8.51728 14.3871C8.5007 14.3683 8.48956 14.3453 8.48508 14.3206C8.39286 13.8123 8.13174 12.9506 7.82395 12.8031C7.79117 12.7873 7.766 12.7591 7.75395 12.7247C7.74189 12.6904 7.74392 12.6526 7.7596 12.6198C7.77543 12.5869 7.80362 12.5617 7.83801 12.5497C7.87239 12.5376 7.91015 12.5397 7.94301 12.5554C8.3548 12.7533 8.59875 13.5796 8.70116 14.0144C10.31 12.2825 9.5827 11.1833 9.57491 11.1721C9.56463 11.1573 9.55738 11.1406 9.55357 11.1229C9.54976 11.1053 9.54947 11.0871 9.55271 11.0694C9.55595 11.0517 9.56266 11.0347 9.57245 11.0196C9.58224 11.0045 9.59493 10.9914 9.60978 10.9812C9.67118 10.9383 9.75777 10.9533 9.80067 11.0161C9.83901 11.0713 10.7168 12.3952 8.71729 14.393C8.70455 14.4058 8.68941 14.4159 8.67275 14.4228C8.65609 14.4297 8.63823 14.4332 8.6202 14.4332ZM5.56124 10.4798C5.53746 10.4798 5.5141 10.4736 5.49342 10.4618C5.47274 10.4501 5.45546 10.4332 5.44324 10.4128C5.24298 10.0756 4.28749 9.83641 3.93628 9.7726C3.91157 9.76811 3.88857 9.75694 3.86976 9.7403C3.85095 9.72366 3.83705 9.70219 3.82957 9.67822C3.82214 9.65433 3.82139 9.62886 3.82739 9.60458C3.83339 9.58029 3.84592 9.5581 3.86362 9.54042C5.86258 7.54109 7.18668 8.41775 7.24166 8.45636C7.2565 8.4666 7.26917 8.47966 7.27895 8.49479C7.28873 8.50993 7.29544 8.52685 7.29868 8.54458C7.30191 8.56231 7.30163 8.5805 7.29783 8.59812C7.29403 8.61574 7.28679 8.63243 7.27653 8.64725C7.23363 8.70972 7.14841 8.72475 7.08619 8.68264C7.039 8.65021 5.9607 7.95799 4.24222 9.55652C4.66258 9.65519 5.44997 9.88624 5.6792 10.2723C5.68845 10.2878 5.69455 10.305 5.69716 10.3228C5.69976 10.3406 5.69882 10.3588 5.69439 10.3763C5.68995 10.3938 5.68211 10.4102 5.67131 10.4247C5.66051 10.4391 5.64697 10.4513 5.63146 10.4605C5.61018 10.4731 5.58595 10.4797 5.56124 10.4798ZM2.83787 15.6112C2.76871 15.6112 2.7253 15.5822 2.70089 15.5581C2.3907 15.2477 4.04247 13.4401 4.0599 13.4224C4.26741 13.2155 4.62905 13.2155 4.83659 13.423C4.88768 13.4738 4.92819 13.5342 4.95576 13.6007C4.98333 13.6673 4.9974 13.7386 4.99717 13.8106C4.99717 13.9576 4.94006 14.0954 4.83631 14.1989C4.82207 14.2134 3.24166 15.6112 2.83787 15.6112ZM4.44807 13.5367C4.41205 13.5365 4.37636 13.5435 4.34305 13.5572C4.30974 13.5709 4.27948 13.5911 4.25399 13.6166C4.05561 13.8149 3.20788 14.8595 2.97893 15.2799C3.39929 15.0509 4.44382 14.2032 4.64219 14.0048C4.66784 13.9794 4.68817 13.9492 4.70198 13.9158C4.7158 13.8825 4.72282 13.8468 4.72264 13.8107C4.7228 13.7747 4.7158 13.7391 4.70203 13.7058C4.68827 13.6726 4.66802 13.6424 4.64247 13.6171C4.61701 13.5915 4.58671 13.5712 4.55334 13.5574C4.51997 13.5436 4.48419 13.5365 4.44807 13.5367Z" fill="#007BFF"/>
<path d="M2.29861 16.4665C2.13696 16.4665 2.01045 16.4219 1.92276 16.3346C1.65921 16.0707 1.78736 15.4777 2.31443 14.5217C2.70854 13.8064 3.22438 13.0922 3.47613 12.8407C3.73511 12.5812 4.07959 12.4385 4.44611 12.4385C4.81262 12.4385 5.15738 12.5812 5.4166 12.8407C5.95146 13.3758 5.95201 14.2466 5.41739 14.7817C4.99675 15.2021 3.15197 16.4665 2.29861 16.4665ZM4.44607 12.7131C4.15277 12.7131 3.87744 12.8273 3.67021 13.0348C3.43055 13.274 2.92517 13.9818 2.55492 14.6541C2.05009 15.5694 2.00348 16.0268 2.11684 16.1405C2.15117 16.1748 2.21229 16.192 2.29861 16.192C3.01794 16.192 4.78311 15.0273 5.22331 14.5877C5.65091 14.1598 5.65036 13.4628 5.22252 13.0348C5.01498 12.8273 4.73938 12.7131 4.44607 12.7131ZM7.24876 13.4504C7.22161 13.4504 7.19506 13.4423 7.17248 13.4273C7.1499 13.4122 7.1323 13.3907 7.12192 13.3656C7.11153 13.3406 7.10882 13.313 7.11412 13.2863C7.11943 13.2597 7.13252 13.2352 7.15173 13.2161L14.7223 5.64536C15.3877 4.97995 15.592 4.25069 15.6544 3.87539C15.7512 3.29468 15.6416 2.87621 15.4987 2.7333C15.3635 2.59817 14.9043 2.52579 14.288 2.64911C13.6199 2.78261 12.9998 3.09631 12.5866 3.50943L5.01608 11.0804L4.82199 10.8863L12.3925 3.31534C12.8429 2.86468 13.5143 2.5239 14.2344 2.37996C14.7577 2.27542 15.4164 2.26227 15.6928 2.53921C16.1261 2.97244 16.1609 4.59497 14.9164 5.83948L7.34585 13.4102C7.33311 13.4229 7.31798 13.4331 7.30131 13.44C7.28465 13.4469 7.26679 13.4504 7.24876 13.4504Z" fill="#007BFF"/>
<path d="M13.2669 3.54966C13.2432 3.54968 13.2199 3.54357 13.1992 3.53191C13.1786 3.52026 13.1614 3.50345 13.1492 3.48314C13.1305 3.4519 13.1249 3.41455 13.1337 3.37923C13.1425 3.34392 13.1649 3.31352 13.1961 3.29468C14.1639 2.71209 15.0293 2.65045 15.3055 2.92738C15.3303 2.95331 15.344 2.98792 15.3436 3.02381C15.3432 3.05969 15.3288 3.094 15.3034 3.11938C15.278 3.14476 15.2437 3.1592 15.2078 3.15959C15.1719 3.15999 15.1373 3.14632 15.1114 3.1215C14.9899 3.00031 14.3084 2.94561 13.3376 3.53006C13.3162 3.54283 13.2918 3.5496 13.2669 3.54966ZM6.08452 12.2852C6.05738 12.2852 6.03085 12.2771 6.00829 12.262C5.98572 12.247 5.96814 12.2255 5.95775 12.2005C5.94736 12.1754 5.94464 12.1478 5.94993 12.1212C5.95522 12.0946 5.96828 12.0701 5.98746 12.0509L8.3159 9.72273C8.32864 9.70999 8.34377 9.69988 8.36042 9.69298C8.37707 9.68608 8.39492 9.68253 8.41294 9.68253C8.43096 9.68253 8.44881 9.68608 8.46546 9.69298C8.48211 9.69988 8.49724 9.70999 8.50998 9.72273C8.52273 9.73547 8.53284 9.7506 8.53973 9.76725C8.54663 9.7839 8.55018 9.80175 8.55018 9.81977C8.55018 9.8378 8.54663 9.85564 8.53973 9.87229C8.53284 9.88894 8.52273 9.90407 8.50998 9.91681L6.18155 12.245C6.16882 12.2578 6.1537 12.2679 6.13704 12.2748C6.12039 12.2817 6.10254 12.2852 6.08452 12.2852ZM5.69632 11.897C5.67829 11.8971 5.66044 11.8935 5.64379 11.8866C5.62714 11.8797 5.61202 11.8696 5.59929 11.8568L4.82288 11.0804C4.79714 11.0547 4.78268 11.0198 4.78268 10.9834C4.78268 10.947 4.79714 10.9121 4.82288 10.8863C4.84862 10.8606 4.88353 10.8461 4.91992 10.8461C4.95632 10.8461 4.99123 10.8606 5.01697 10.8863L5.79338 11.6627C5.81259 11.6819 5.82568 11.7064 5.83099 11.733C5.83629 11.7596 5.83358 11.7872 5.82319 11.8123C5.81279 11.8374 5.79519 11.8589 5.77261 11.8739C5.75002 11.889 5.72347 11.8971 5.69632 11.897ZM7.24965 13.4504C7.23162 13.4504 7.21377 13.4468 7.19712 13.4399C7.18047 13.433 7.16535 13.4229 7.15262 13.4101L6.37567 12.6332C6.34993 12.6074 6.33547 12.5725 6.33547 12.5361C6.33547 12.4997 6.34993 12.4648 6.37567 12.4391C6.4014 12.4134 6.43631 12.3989 6.47271 12.3989C6.50911 12.3989 6.54401 12.4134 6.56975 12.4391L7.34671 13.2161C7.36592 13.2352 7.37901 13.2597 7.38432 13.2863C7.38963 13.313 7.38691 13.3406 7.37652 13.3657C7.36613 13.3908 7.34853 13.4122 7.32594 13.4273C7.30336 13.4423 7.2768 13.4504 7.24965 13.4504ZM11.9081 7.2856C11.6513 7.2856 11.4103 7.18559 11.2288 7.0041C11.0473 6.82257 10.9473 6.5813 10.9473 6.32471C10.9473 6.06789 11.0473 5.82658 11.2288 5.64509C11.5918 5.28184 12.2248 5.28184 12.5878 5.64481C12.7693 5.8263 12.8693 6.06758 12.8693 6.32416C12.8693 6.58099 12.7693 6.8223 12.5878 7.00382C12.4062 7.18531 12.1647 7.2856 11.9081 7.2856ZM11.9084 5.63785C11.725 5.63785 11.5527 5.70944 11.4229 5.83917C11.359 5.90278 11.3083 5.97844 11.2737 6.06178C11.2392 6.14512 11.2216 6.23448 11.2219 6.32468C11.2216 6.41484 11.2393 6.50415 11.2738 6.58745C11.3083 6.67075 11.359 6.74637 11.4229 6.80994C11.6819 7.06893 12.1342 7.0692 12.3937 6.80967C12.4576 6.74606 12.5084 6.67039 12.5429 6.58705C12.5774 6.5037 12.595 6.41434 12.5948 6.32413C12.595 6.23397 12.5773 6.14465 12.5428 6.06136C12.5083 5.97806 12.4576 5.90244 12.3937 5.83886C12.3301 5.77494 12.2545 5.72425 12.1712 5.68975C12.0879 5.65524 11.9986 5.6376 11.9084 5.63785ZM9.96712 9.22662C9.71026 9.22662 9.46898 9.12664 9.28773 8.94512C9.10624 8.76363 9.00623 8.52235 9.00623 8.26577C9.00623 8.00895 9.10624 7.76763 9.28773 7.58642C9.65023 7.22396 10.2835 7.22341 10.6465 7.58642C10.828 7.76794 10.928 8.00922 10.928 8.26577C10.928 8.52232 10.828 8.76363 10.6465 8.94512C10.465 9.12664 10.2237 9.22662 9.96712 9.22662ZM9.96712 7.57942C9.7837 7.57942 9.61135 7.65074 9.48185 7.78051C9.35208 7.90996 9.28076 8.08236 9.28076 8.26577C9.28053 8.35593 9.29819 8.44525 9.3327 8.52854C9.36722 8.61184 9.41791 8.68746 9.48185 8.75103C9.74053 9.01029 10.1926 9.01081 10.4523 8.75103C10.5163 8.68745 10.567 8.61183 10.6015 8.52854C10.636 8.44524 10.6536 8.35593 10.6534 8.26577C10.6536 8.17561 10.636 8.0863 10.6015 8.003C10.567 7.91971 10.5163 7.84408 10.4523 7.78051C10.3888 7.71657 10.3132 7.66587 10.2299 7.63136C10.1466 7.59684 10.0573 7.57919 9.96712 7.57942ZM15.1055 14.0037C15.0296 14.0037 14.9669 13.9426 14.9669 13.8664C14.9669 13.7909 15.0269 13.7292 15.1025 13.7292H15.1055C15.1419 13.7293 15.1767 13.7437 15.2025 13.7695C15.2282 13.7952 15.2427 13.8301 15.2427 13.8664C15.2427 13.9426 15.1811 14.0037 15.1055 14.0037ZM4.39816 0.551511C4.32231 0.551511 4.25957 0.490111 4.25957 0.414227C4.25957 0.338378 4.31963 0.276978 4.39521 0.276978H4.39816C4.47377 0.276978 4.53544 0.338378 4.53544 0.414227C4.53544 0.490111 4.47377 0.551511 4.39816 0.551511ZM10.4379 1.10058C10.362 1.10058 10.2993 1.03918 10.2993 0.963294C10.2993 0.887445 10.3593 0.826045 10.4349 0.826045H10.4379C10.4743 0.826072 10.5092 0.840541 10.5349 0.866274C10.5606 0.892008 10.5751 0.926902 10.5751 0.963294C10.5751 1.03918 10.5135 1.10058 10.4379 1.10058ZM0.28019 4.39498C0.204306 4.39498 0.141602 4.33358 0.141602 4.2577C0.141602 4.18185 0.201663 4.12045 0.277238 4.12045H0.28019C0.355799 4.12045 0.417474 4.18185 0.417474 4.2577C0.417474 4.33358 0.355799 4.39498 0.28019 4.39498ZM2.47618 11.8075C2.4003 11.8075 2.33756 11.7458 2.33756 11.6702C2.33756 11.594 2.39762 11.5329 2.47323 11.5329H2.47618C2.49421 11.5329 2.51207 11.5365 2.52873 11.5434C2.54538 11.5503 2.56052 11.5604 2.57327 11.5731C2.58601 11.5859 2.59612 11.601 2.60301 11.6177C2.60991 11.6343 2.61345 11.6522 2.61343 11.6702C2.61336 11.7066 2.59888 11.7415 2.57315 11.7672C2.54743 11.7929 2.51256 11.8074 2.47618 11.8075ZM9.32579 17.5727C9.24991 17.5727 9.18717 17.511 9.18717 17.4354C9.18717 17.3593 9.24723 17.2981 9.32284 17.2981H9.32579C9.4014 17.2981 9.46308 17.3593 9.46308 17.4354C9.46308 17.511 9.40144 17.5727 9.32579 17.5727ZM15.9285 17.8472C15.8526 17.8472 15.7899 17.7861 15.7899 17.7099C15.7899 17.6343 15.85 17.5727 15.9255 17.5727H15.9285C16.0041 17.5727 16.0658 17.6343 16.0658 17.7099C16.0658 17.7861 16.0041 17.8472 15.9285 17.8472ZM12.9092 10.4348C12.8333 10.4348 12.7706 10.3731 12.7706 10.2975C12.7706 10.2214 12.8307 10.1603 12.9063 10.1603H12.9092C12.9848 10.1603 13.0465 10.2214 13.0465 10.2975C13.0464 10.3339 13.0319 10.3688 13.0062 10.3945C12.9805 10.4202 12.9456 10.4347 12.9092 10.4348ZM16.2033 9.33655C16.1275 9.33655 16.0647 9.27515 16.0647 9.19927C16.0647 9.12342 16.1248 9.06202 16.2004 9.06202H16.2033C16.2397 9.06204 16.2746 9.07651 16.3004 9.10225C16.3261 9.12798 16.3406 9.16287 16.3406 9.19927C16.3406 9.27515 16.2789 9.33655 16.2033 9.33655ZM14.5561 13.1796C14.4803 13.1796 14.4175 13.1185 14.4175 13.0423C14.4175 12.9667 14.4776 12.9051 14.5532 12.9051H14.5561C14.5925 12.9051 14.6274 12.9196 14.6531 12.9454C14.6788 12.9711 14.6933 13.0059 14.6934 13.0423C14.6934 13.1184 14.6317 13.1796 14.5561 13.1796Z" fill="#007BFF"/>
<path d="M15.2343 14.5533C14.4774 14.5528 13.8616 13.9367 13.8613 13.1802C13.8616 12.423 14.4774 11.8075 15.234 11.8075C15.9908 11.8075 16.6067 12.4231 16.6067 13.1802C16.6067 13.9367 15.9911 14.5528 15.2343 14.5533ZM15.234 12.082C14.6286 12.082 14.1362 12.5748 14.1359 13.1802C14.1362 13.7856 14.6289 14.2783 15.2343 14.2788C15.8397 14.2783 16.3321 13.7856 16.3321 13.1802C16.3321 12.5743 15.8397 12.082 15.234 12.082Z" fill="#007BFF"/>
<path d="M15.6447 13.1802C15.4176 13.1802 15.2326 12.9951 15.2323 12.7684C15.2323 12.541 15.417 12.3566 15.6438 12.3566C15.8709 12.3566 16.0556 12.5416 16.0556 12.7684C16.0559 12.8223 16.0455 12.8758 16.0249 12.9257C16.0044 12.9755 15.9742 13.0209 15.936 13.059C15.898 13.0975 15.8526 13.1281 15.8026 13.1489C15.7525 13.1697 15.6988 13.1803 15.6447 13.1802ZM15.6436 12.6311C15.6073 12.6311 15.5725 12.6455 15.5469 12.6712C15.5213 12.6968 15.5068 12.7316 15.5068 12.7678C15.5071 12.845 15.5672 12.9056 15.6441 12.9056H15.6447C15.6814 12.9056 15.7157 12.8912 15.7414 12.8654C15.7672 12.8397 15.7811 12.8053 15.7811 12.7689C15.7811 12.7324 15.7666 12.6974 15.7408 12.6715C15.7151 12.6457 15.6801 12.6312 15.6436 12.6311ZM11.8009 16.2006C11.7645 16.2005 11.7296 16.1861 11.7039 16.1603C11.6781 16.1346 11.6637 16.0997 11.6636 16.0633L11.6631 14.9646C11.6631 14.9282 11.6776 14.8933 11.7033 14.8676C11.729 14.8419 11.7639 14.8274 11.8003 14.8274C11.8762 14.8274 11.9376 14.889 11.9376 14.9646L11.9382 16.0633C11.9381 16.0997 11.9237 16.1346 11.8979 16.1603C11.8722 16.1861 11.8373 16.2005 11.8009 16.2006Z" fill="#007BFF"/>
<path d="M12.0773 15.6509H11.5282C11.4523 15.6509 11.3909 15.5893 11.3909 15.5137C11.3909 15.4375 11.4523 15.3764 11.5282 15.3764H12.0773C12.0953 15.3764 12.1132 15.3799 12.1299 15.3868C12.1465 15.3937 12.1617 15.4038 12.1744 15.4165C12.1872 15.4293 12.1973 15.4444 12.2042 15.4611C12.2111 15.4778 12.2146 15.4957 12.2145 15.5137C12.2145 15.5501 12.2 15.585 12.1743 15.6107C12.1486 15.6364 12.1137 15.6509 12.0773 15.6509ZM6.31209 17.2981C6.2362 17.2981 6.1748 17.2365 6.1748 17.1609V16.0628C6.1748 15.9866 6.2362 15.9255 6.31209 15.9255C6.38797 15.9255 6.44934 15.9866 6.44934 16.0628V17.1609C6.44934 17.2365 6.38797 17.2981 6.31209 17.2981Z" fill="#007BFF"/>
<path d="M6.58466 16.7491H6.03587C5.95999 16.7491 5.89859 16.6874 5.89859 16.6118C5.89855 16.5937 5.90208 16.5759 5.90897 16.5592C5.91586 16.5425 5.92597 16.5274 5.93873 16.5146C5.95148 16.5019 5.96663 16.4918 5.9833 16.4849C5.99997 16.478 6.01783 16.4745 6.03587 16.4745H6.58466C6.6027 16.4745 6.62056 16.478 6.63723 16.4849C6.6539 16.4918 6.66904 16.5019 6.68179 16.5146C6.69454 16.5274 6.70465 16.5425 6.71154 16.5592C6.71842 16.5759 6.72195 16.5937 6.72191 16.6118C6.72191 16.6874 6.66055 16.7491 6.58466 16.7491ZM2.9742 3.67699C2.89831 3.67699 2.83691 3.61559 2.83691 3.53971L2.83719 2.44157C2.83718 2.42354 2.84072 2.40569 2.84762 2.38903C2.85452 2.37237 2.86463 2.35724 2.87738 2.34449C2.89013 2.33174 2.90527 2.32163 2.92193 2.31474C2.93859 2.30785 2.95644 2.30431 2.97447 2.30432C2.9925 2.30431 3.01035 2.30786 3.02701 2.31475C3.04366 2.32164 3.0588 2.33175 3.07154 2.3445C3.08429 2.35725 3.0944 2.37238 3.10129 2.38904C3.10819 2.40569 3.11173 2.42354 3.11172 2.44157L3.11145 3.53971C3.11145 3.61562 3.05005 3.67699 2.9742 3.67699Z" fill="#007BFF"/>
<path d="M3.2508 3.12788H2.70174C2.62585 3.12788 2.56445 3.06648 2.56445 2.99059C2.56444 2.97256 2.56799 2.95471 2.57489 2.93805C2.58178 2.92139 2.59189 2.90626 2.60464 2.89351C2.6174 2.88076 2.63253 2.87065 2.64919 2.86376C2.66585 2.85687 2.68371 2.85333 2.70174 2.85334H3.2508C3.26883 2.85333 3.28668 2.85688 3.30334 2.86377C3.31999 2.87067 3.33513 2.88077 3.34787 2.89352C3.36062 2.90627 3.37073 2.9214 3.37762 2.93806C3.38452 2.95471 3.38806 2.97257 3.38805 2.99059C3.38805 3.06648 3.32665 3.12788 3.2508 3.12788ZM8.50871 2.74767C8.49068 2.74768 8.47283 2.74413 8.45618 2.73724C8.43952 2.73034 8.42439 2.72023 8.41164 2.70749C8.39889 2.69474 8.38878 2.67961 8.38189 2.66295C8.375 2.6463 8.37145 2.62844 8.37146 2.61042L8.37174 1.51228C8.37174 1.4364 8.43314 1.375 8.50899 1.375C8.58487 1.375 8.64627 1.4364 8.64627 1.51228L8.64599 2.61042C8.646 2.62845 8.64246 2.6463 8.63556 2.66296C8.62867 2.67962 8.61855 2.69475 8.6058 2.7075C8.59305 2.72025 8.57792 2.73036 8.56126 2.73725C8.5446 2.74414 8.52674 2.74768 8.50871 2.74767Z" fill="#007BFF"/>
<path d="M8.7824 2.19873H8.23361C8.21558 2.19874 8.19773 2.19519 8.18108 2.1883C8.16442 2.1814 8.14929 2.1713 8.13654 2.15855C8.12379 2.1458 8.11368 2.13067 8.10679 2.11401C8.0999 2.09736 8.09635 2.0795 8.09636 2.06148C8.09636 1.98559 8.15776 1.92419 8.23361 1.92419H8.7824C8.85829 1.92419 8.91969 1.98559 8.91969 2.06148C8.91969 2.07951 8.91615 2.09736 8.90925 2.11402C8.90236 2.13068 8.89224 2.14581 8.87949 2.15856C8.86674 2.17131 8.85161 2.18142 8.83495 2.18831C8.81829 2.1952 8.80043 2.19874 8.7824 2.19873ZM1.09526 9.06207C1.07723 9.06207 1.05937 9.05853 1.04272 9.05163C1.02606 9.04474 1.01092 9.03462 0.998175 9.02187C0.985428 9.00912 0.975319 8.99399 0.968427 8.97733C0.961535 8.96067 0.957994 8.94281 0.958008 8.92478L0.958557 7.82665C0.958557 7.7508 1.01992 7.68936 1.09581 7.68936C1.17169 7.68936 1.23309 7.75076 1.23309 7.82665L1.23254 8.92478C1.23254 9.00067 1.17114 9.06207 1.09526 9.06207Z" fill="#007BFF"/>
<path d="M1.36893 8.51291H0.819867C0.743983 8.51291 0.682617 8.45151 0.682617 8.37562C0.682617 8.29974 0.743983 8.23834 0.819867 8.23834H1.36893C1.44482 8.23834 1.50618 8.29974 1.50618 8.37562C1.50618 8.45151 1.44482 8.51291 1.36893 8.51291ZM5.76116 6.04211C5.50485 6.04211 5.26358 5.94209 5.08181 5.76061C4.90029 5.57908 4.80031 5.33781 4.80004 5.08126C4.80004 4.82467 4.90001 4.5834 5.08154 4.40218C5.44507 4.03889 6.07726 4.03862 6.44024 4.40191C6.62204 4.5834 6.72201 4.82467 6.72201 5.08126C6.72201 5.33784 6.62204 5.57912 6.44024 5.76061C6.25902 5.94213 6.01775 6.04211 5.76116 6.04211ZM5.76116 4.39494C5.57779 4.39494 5.40539 4.4665 5.27566 4.59627C5.21171 4.65977 5.16101 4.73534 5.12649 4.8186C5.09198 4.90185 5.07434 4.99113 5.0746 5.08126C5.07448 5.17142 5.09221 5.26073 5.12676 5.34401C5.16131 5.4273 5.21201 5.50292 5.27593 5.56652C5.53547 5.82606 5.9872 5.82606 6.24619 5.56652C6.37595 5.43679 6.44751 5.26439 6.44751 5.08126C6.44751 4.89815 6.37595 4.72576 6.24619 4.59599C6.11642 4.46622 5.94426 4.39494 5.76116 4.39494Z" fill="#007BFF"/>
<path d="M5.05196 6.01802C4.9884 6.01802 4.93211 5.99897 4.88787 5.95477C4.86366 5.93056 4.84937 5.89818 4.8478 5.86398C4.84623 5.82978 4.8575 5.79623 4.87939 5.7699C4.90128 5.74358 4.93222 5.72639 4.96613 5.7217C5.00004 5.71701 5.03449 5.72516 5.0627 5.74455C5.15063 5.73947 5.46268 5.57377 5.85816 5.1786C6.25384 4.78288 6.41951 4.47055 6.42463 4.38235C6.38794 4.32898 6.39302 4.25498 6.44072 4.20755C6.46647 4.18182 6.50138 4.16736 6.53778 4.16736C6.57418 4.16736 6.6091 4.18182 6.63484 4.20755C6.91205 4.48476 6.19807 5.22685 6.05224 5.37272C5.92968 5.49524 5.38679 6.01802 5.05196 6.01802Z" fill="#007BFF"/>
<path d="M14.6262 5.68524C14.6082 5.68526 14.5904 5.68171 14.5737 5.67481C14.557 5.66791 14.5419 5.65778 14.5292 5.64501L12.5879 3.70372C12.5631 3.67779 12.5494 3.64318 12.5498 3.60729C12.5502 3.5714 12.5646 3.5371 12.59 3.51171C12.6154 3.48633 12.6497 3.4719 12.6856 3.4715C12.7215 3.47111 12.7561 3.48478 12.782 3.5096L14.7233 5.45089C14.736 5.46364 14.7461 5.47877 14.753 5.49542C14.7599 5.51207 14.7635 5.52991 14.7635 5.54794C14.7635 5.56596 14.7599 5.58381 14.753 5.60046C14.7461 5.61711 14.736 5.63224 14.7233 5.64498C14.7106 5.65777 14.6954 5.66791 14.6788 5.67482C14.6621 5.68173 14.6443 5.68527 14.6262 5.68524Z" fill="#007BFF"/>
<path d="M6.58952 13.282C6.41441 13.282 6.11283 13.1474 5.59891 12.6332C4.83884 11.8734 4.90772 11.5774 5.01659 11.4685C5.04048 11.4447 5.07234 11.4305 5.10605 11.4286C5.13977 11.4268 5.17298 11.4374 5.19933 11.4585C5.22569 11.4796 5.24333 11.5097 5.24888 11.543C5.25444 11.5764 5.24752 11.6105 5.22945 11.6391C5.22732 11.6718 5.23803 11.8841 5.793 12.4391C6.34714 12.9935 6.55626 13.001 6.59326 13.0031C6.61959 12.9865 6.65082 12.9792 6.6818 12.9827C6.71279 12.9861 6.74169 12.9999 6.76376 13.0219C6.7895 13.0477 6.80396 13.0826 6.80396 13.119C6.80396 13.1554 6.7895 13.1903 6.76376 13.216C6.72862 13.2509 6.67367 13.282 6.58952 13.282Z" fill="#007BFF"/>
<path d="M10.16 8.20898C10.1419 8.209 10.1241 8.20545 10.1074 8.19855C10.0908 8.19165 10.0756 8.18152 10.0629 8.16875C10.0098 8.11569 9.91919 8.11569 9.86613 8.16875C9.85339 8.1815 9.83826 8.19161 9.82161 8.19851C9.80496 8.20541 9.78711 8.20896 9.76909 8.20896C9.75106 8.20896 9.73322 8.20541 9.71656 8.19851C9.69991 8.19161 9.68479 8.1815 9.67204 8.16875C9.61843 8.11542 9.61843 8.02855 9.67204 7.97467C9.82807 7.8181 10.101 7.8181 10.257 7.97467C10.3106 8.02855 10.3106 8.11542 10.257 8.16875C10.2443 8.18152 10.2291 8.19165 10.2125 8.19855C10.1958 8.20545 10.178 8.209 10.16 8.20898Z" fill="#007BFF"/>
<path d="M12.1032 6.26766C12.0852 6.26768 12.0673 6.26413 12.0507 6.25724C12.034 6.25034 12.0189 6.24022 12.0061 6.22747C11.98 6.20145 11.9446 6.18685 11.9077 6.18685C11.8709 6.18685 11.8355 6.20145 11.8094 6.22747C11.7834 6.25229 11.7488 6.26596 11.7129 6.26556C11.677 6.26517 11.6427 6.25073 11.6174 6.22535C11.592 6.19997 11.5775 6.16566 11.5772 6.12978C11.5768 6.09389 11.5904 6.05928 11.6153 6.03335C11.7766 5.87194 12.0389 5.87194 12.2003 6.03335C12.2195 6.05255 12.2325 6.07701 12.2378 6.10364C12.2431 6.13026 12.2404 6.15786 12.23 6.18293C12.2196 6.20801 12.202 6.22944 12.1794 6.24452C12.1568 6.2596 12.1303 6.26765 12.1032 6.26766Z" fill="#007BFF"/>
</svg>
