<svg width="155" height="52" viewBox="0 0 155 52" fill="none" xmlns="http://www.w3.org/2000/svg">
<g clip-path="url(#clip0_493_351)">
<path d="M142.657 0.000169H12.3502C11.8752 0.000169 11.4059 0.000169 10.9322 0.002769C10.5357 0.005369 10.1423 0.012922 9.7419 0.019279C8.87213 0.0295513 8.0044 0.106348 7.14626 0.249002C6.28932 0.394761 5.45923 0.669559 4.68406 1.0641C3.90984 1.46198 3.20241 1.97899 2.58744 2.59636C1.96924 3.212 1.45392 3.92359 1.0613 4.70378C0.667594 5.48241 0.394599 6.31679 0.25174 7.17809C0.107523 8.03831 0.0299192 8.90845 0.0196237 9.78069C0.00760337 10.1793 0.00633398 10.5792 0 10.9778V41.0263C0.00633398 41.43 0.00760337 41.821 0.0196237 42.2248C0.0299223 43.097 0.107527 43.9671 0.25174 44.8273C0.394204 45.6891 0.667216 46.524 1.0613 47.3029C1.45374 48.0805 1.96913 48.7893 2.58744 49.4015C3.20008 50.0216 3.90797 50.5389 4.68406 50.9338C5.45923 51.3294 6.28923 51.6058 7.14626 51.7538C8.00455 51.8953 8.87218 51.9722 9.7419 51.9837C10.1423 51.9925 10.5357 51.9976 10.9322 51.9976C11.4059 52.0002 11.8752 52.0002 12.3502 52.0002H142.657C143.122 52.0002 143.595 52.0002 144.061 51.9976C144.456 51.9976 144.86 51.9925 145.255 51.9837C146.123 51.9728 146.989 51.8959 147.846 51.7538C148.705 51.6048 149.538 51.3284 150.317 50.9338C151.093 50.5387 151.8 50.0214 152.412 49.4015C153.029 48.7869 153.545 48.0787 153.943 47.3029C154.334 46.5234 154.604 45.6886 154.744 44.8273C154.889 43.967 154.969 43.0971 154.985 42.2248C154.99 41.821 154.99 41.43 154.99 41.0263C155 40.5541 155 40.0844 155 39.6044V12.3971C155 11.9211 155 11.4488 154.99 10.9778C154.99 10.5792 154.99 10.1793 154.985 9.78064C154.969 8.90832 154.889 8.03837 154.744 7.17804C154.604 6.31723 154.333 5.48292 153.943 4.70372C153.143 3.13992 151.875 1.867 150.317 1.06398C149.538 0.670407 148.705 0.395682 147.846 0.248885C146.989 0.105603 146.123 0.0287791 145.255 0.019097C144.86 0.012753 144.456 0.005135 144.061 0.0026C143.595 0 143.122 0 142.657 0V0.000169Z" fill="#A6A6A6"/>
<path d="M10.9405 50.8617C10.5459 50.8617 10.1608 50.8566 9.76922 50.8478C8.95808 50.8372 8.14884 50.7663 7.34813 50.6358C6.60151 50.5067 5.87824 50.2667 5.20217 49.9235C4.5323 49.5832 3.92132 49.137 3.39265 48.6019C2.85632 48.0732 2.4098 47.4599 2.07079 46.7865C1.72804 46.1086 1.49084 45.3821 1.36744 44.6321C1.23419 43.8263 1.16209 43.0114 1.15178 42.1946C1.14356 41.9204 1.13281 41.0076 1.13281 41.0076V10.9769C1.13281 10.9769 1.14426 10.078 1.15184 9.81396C1.16172 8.99845 1.23339 8.18487 1.36625 7.38027C1.48987 6.62824 1.72726 5.89959 2.07019 5.21954C2.40796 4.54655 2.852 3.93284 3.38509 3.4022C3.91759 2.86653 4.53052 2.418 5.20153 2.07299C5.87605 1.73094 6.59796 1.49257 7.34307 1.36587C8.14641 1.23401 8.95846 1.16271 9.7724 1.15259L10.9412 1.13672H144.057L145.239 1.15323C146.046 1.16285 146.85 1.2335 147.646 1.3646C148.399 1.49289 149.129 1.73292 149.811 2.0768C151.155 2.7721 152.249 3.87213 152.939 5.22271C153.276 5.89807 153.51 6.62078 153.632 7.36631C153.767 8.17751 153.842 8.99748 153.857 9.81968C153.861 10.1878 153.861 10.5833 153.861 10.9769C153.871 11.4644 153.871 11.9284 153.871 12.3962V39.6035C153.871 40.0757 153.871 40.5366 153.861 41.0012C153.861 41.424 153.861 41.8112 153.856 42.2098C153.841 43.0174 153.767 43.8227 153.635 44.6194C153.514 45.3748 153.278 46.107 152.935 46.7904C152.594 47.4565 152.15 48.0645 151.62 48.5918C151.09 49.1297 150.478 49.5785 149.807 49.921C149.127 50.2668 148.398 50.5078 147.646 50.6358C146.846 50.767 146.036 50.8379 145.225 50.8478C144.846 50.8566 144.449 50.8617 144.063 50.8617L142.659 50.8643L10.9405 50.8617Z" fill="black"/>
<path d="M32.0838 26.3915C32.0978 25.3064 32.3849 24.2426 32.9186 23.2988C33.4523 22.3551 34.2152 21.5622 35.1363 20.9938C34.5511 20.1551 33.7792 19.4649 32.8818 18.978C31.9844 18.4911 30.9862 18.2209 29.9666 18.1888C27.7915 17.9597 25.6828 19.4951 24.5744 19.4951C23.4445 19.4951 21.738 18.2116 19.9003 18.2495C18.7117 18.2881 17.5532 18.635 16.5379 19.2565C15.5225 19.8779 14.6849 20.7528 14.1066 21.7958C11.6015 26.1487 13.4701 32.5461 15.8697 36.0647C17.0703 37.7876 18.4735 39.7122 20.3095 39.644C22.1062 39.5692 22.7772 38.4941 24.9459 38.4941C27.0945 38.4941 27.724 39.644 29.5973 39.6006C31.5252 39.5692 32.7398 37.87 33.8983 36.1307C34.761 34.903 35.4247 33.5462 35.8651 32.1104C34.7451 31.635 33.7892 30.8391 33.1168 29.8222C32.4444 28.8052 32.0852 27.612 32.0838 26.3915Z" fill="white"/>
<path d="M28.548 15.8737C29.5992 14.6073 30.117 12.9794 29.9916 11.3359C28.3857 11.5052 26.9023 12.2756 25.8369 13.4934C25.316 14.0884 24.9171 14.7806 24.6629 15.5304C24.4087 16.2802 24.3042 17.0729 24.3555 17.8632C25.1587 17.8715 25.9534 17.6968 26.6796 17.3522C27.4058 17.0076 28.0447 16.5021 28.548 15.8737Z" fill="white"/>
<path d="M54.7961 35.281H48.665L47.1926 39.6444H44.5957L50.403 23.501H53.1011L58.9084 39.6444H56.2672L54.7961 35.281ZM49.3 33.2675H54.1599L51.7641 26.1861H51.6971L49.3 33.2675Z" fill="white"/>
<path d="M71.4491 33.7599C71.4491 37.4174 69.4985 39.7673 66.555 39.7673C65.8094 39.8065 65.0678 39.6341 64.4153 39.2699C63.7627 38.9057 63.2255 38.3645 62.8652 37.7081H62.8095V43.5378H60.4023V27.8743H62.7324V29.832H62.7767C63.1535 29.1788 63.6998 28.6403 64.3573 28.2739C65.0149 27.9075 65.7591 27.7269 66.5107 27.7512C69.4871 27.7512 71.4491 30.1125 71.4491 33.7599ZM68.9748 33.7599C68.9748 31.377 67.7478 29.8104 65.8757 29.8104C64.0365 29.8104 62.7994 31.41 62.7994 33.7599C62.7994 36.1314 64.0365 37.7196 65.8757 37.7196C67.7479 37.7196 68.9748 36.1644 68.9748 33.7599Z" fill="white"/>
<path d="M84.3592 33.7599C84.3592 37.4174 82.4087 39.7673 79.4652 39.7673C78.7195 39.8064 77.978 39.6341 77.3254 39.2699C76.6729 38.9057 76.1357 38.3645 75.7754 37.7081H75.7197V43.5378H73.3125V27.8743H75.6425V29.8319H75.6868C76.0636 29.1787 76.6099 28.6403 77.2674 28.2739C77.925 27.9075 78.6692 27.7269 79.4209 27.7512C82.3973 27.7512 84.3592 30.1125 84.3592 33.7599ZM81.885 33.7599C81.885 31.377 80.658 29.8104 78.7859 29.8104C76.9467 29.8104 75.7096 31.41 75.7096 33.7599C75.7096 36.1314 76.9467 37.7196 78.7859 37.7196C80.658 37.7196 81.885 36.1644 81.885 33.7599H81.885Z" fill="white"/>
<path d="M92.888 35.147C93.0663 36.7479 94.6159 37.799 96.7334 37.799C98.7623 37.799 100.222 36.7479 100.222 35.3044C100.222 34.0514 99.3417 33.3011 97.257 32.7869L95.1724 32.2829C92.2188 31.5669 90.8476 30.1806 90.8476 27.931C90.8476 25.1456 93.2662 23.2324 96.7005 23.2324C100.099 23.2324 102.429 25.1456 102.508 27.931H100.078C99.9324 26.3199 98.6054 25.3475 96.6663 25.3475C94.7271 25.3475 93.4002 26.3314 93.4002 27.7634C93.4002 28.9047 94.2477 29.5763 96.321 30.0904L98.0931 30.5271C101.393 31.3104 102.765 32.6409 102.765 35.0022C102.765 38.0224 100.367 39.914 96.555 39.914C92.9878 39.914 90.5794 38.0669 90.4238 35.1469L92.888 35.147Z" fill="white"/>
<path d="M107.962 25.0913V27.8767H110.192V29.7898H107.962V36.2784C107.962 37.2864 108.408 37.7562 109.388 37.7562C109.653 37.7515 109.917 37.7329 110.18 37.7003V39.602C109.74 39.6847 109.292 39.7221 108.843 39.7137C106.469 39.7137 105.543 38.8187 105.543 36.5361V29.7898H103.838V27.8767H105.543V25.0913H107.962Z" fill="white"/>
<path d="M111.479 33.7593C111.479 30.0561 113.653 27.729 117.041 27.729C120.442 27.729 122.605 30.056 122.605 33.7593C122.605 37.4727 120.453 39.7895 117.041 39.7895C113.631 39.7895 111.479 37.4726 111.479 33.7593ZM120.152 33.7593C120.152 31.2189 118.992 29.7196 117.041 29.7196C115.091 29.7196 113.932 31.2304 113.932 33.7593C113.932 36.3098 115.091 37.7977 117.041 37.7977C118.992 37.7977 120.152 36.3098 120.152 33.7593H120.152Z" fill="white"/>
<path d="M124.589 27.8742H126.885V29.8775H126.94C127.096 29.2519 127.461 28.6989 127.975 28.3117C128.488 27.9244 129.119 27.7265 129.761 27.7511C130.039 27.7501 130.315 27.7803 130.586 27.8412V30.101C130.236 29.9936 129.87 29.9443 129.504 29.955C129.155 29.9407 128.806 30.0026 128.482 30.1364C128.159 30.2701 127.868 30.4726 127.63 30.7298C127.391 30.9871 127.211 31.2931 127.102 31.6267C126.993 31.9604 126.956 32.3139 126.996 32.6629V39.644H124.589L124.589 27.8742Z" fill="white"/>
<path d="M141.688 36.1866C141.364 38.3232 139.291 39.7895 136.638 39.7895C133.227 39.7895 131.109 37.4955 131.109 33.8151C131.109 30.1233 133.238 27.729 136.537 27.729C139.782 27.729 141.822 29.9659 141.822 33.5346V34.3623H133.539V34.5083C133.501 34.9415 133.555 35.3778 133.698 35.7884C133.841 36.199 134.069 36.5744 134.367 36.8897C134.665 37.2051 135.027 37.453 135.428 37.6172C135.83 37.7814 136.261 37.8581 136.694 37.8421C137.263 37.8956 137.834 37.7633 138.322 37.4651C138.81 37.1668 139.189 36.7184 139.402 36.1866L141.688 36.1866ZM133.551 32.6738H139.414C139.435 32.2844 139.376 31.8946 139.241 31.529C139.105 31.1635 138.896 30.83 138.626 30.5495C138.356 30.269 138.031 30.0475 137.671 29.899C137.312 29.7506 136.926 29.6782 136.537 29.6866C136.145 29.6843 135.757 29.7599 135.394 29.909C135.031 30.0582 134.701 30.278 134.424 30.5557C134.146 30.8334 133.926 31.1636 133.776 31.5271C133.626 31.8907 133.55 32.2804 133.551 32.6738V32.6738Z" fill="white"/>
<path d="M48.9978 11.3516C49.5024 11.3152 50.0088 11.3917 50.4805 11.5756C50.9521 11.7595 51.3772 12.0461 51.7251 12.4148C52.073 12.7835 52.335 13.2251 52.4923 13.7078C52.6495 14.1904 52.6981 14.7021 52.6344 15.2059C52.6344 17.684 51.2999 19.1085 48.9978 19.1085H46.2061V11.3516H48.9978ZM47.4065 18.0115H48.8637C49.2243 18.0331 49.5852 17.9738 49.9201 17.8378C50.2549 17.7018 50.5554 17.4925 50.7996 17.2253C51.0437 16.9581 51.2254 16.6396 51.3314 16.293C51.4375 15.9463 51.4652 15.5804 51.4125 15.2217C51.4614 14.8644 51.4309 14.5007 51.3232 14.1566C51.2155 13.8126 51.0334 13.4967 50.7898 13.2315C50.5462 12.9664 50.2472 12.7587 49.9142 12.6232C49.5812 12.4877 49.2224 12.4278 48.8637 12.4477H47.4065V18.0115Z" fill="white"/>
<path d="M53.9935 16.1794C53.9568 15.7947 54.0007 15.4065 54.1222 15.0399C54.2438 14.6732 54.4403 14.336 54.6993 14.05C54.9583 13.7641 55.274 13.5356 55.6261 13.3792C55.9782 13.2229 56.359 13.1421 56.7441 13.1421C57.1291 13.1421 57.5099 13.2229 57.8621 13.3792C58.2142 13.5356 58.5299 13.7641 58.7888 14.05C59.0478 14.336 59.2444 14.6732 59.366 15.0399C59.4875 15.4065 59.5314 15.7947 59.4947 16.1794C59.532 16.5645 59.4887 16.9531 59.3675 17.3204C59.2463 17.6877 59.0498 18.0255 58.7908 18.312C58.5317 18.5986 58.2158 18.8275 57.8633 18.9842C57.5108 19.1409 57.1296 19.2219 56.7441 19.2219C56.3586 19.2219 55.9773 19.1409 55.6248 18.9842C55.2724 18.8275 54.9565 18.5986 54.6974 18.312C54.4384 18.0255 54.2419 17.6877 54.1207 17.3204C53.9994 16.9531 53.9561 16.5645 53.9935 16.1794ZM58.3107 16.1794C58.3107 14.9105 57.7427 14.1685 56.746 14.1685C55.7454 14.1685 55.1826 14.9105 55.1826 16.1794C55.1826 17.4585 55.7455 18.1948 56.746 18.1948C57.7428 18.1948 58.3107 17.4534 58.3107 16.1794H58.3107Z" fill="white"/>
<path d="M66.8038 19.1087H65.6097L64.4042 14.7974H64.3131L63.1127 19.1087H61.93L60.3223 13.2549H61.4898L62.5346 17.7217H62.6207L63.8198 13.2549H64.9241L66.1233 17.7217H66.2143L67.2541 13.2549H68.4052L66.8038 19.1087Z" fill="white"/>
<path d="M69.7598 13.254H70.8678V14.1839H70.9539C71.0998 13.8499 71.3459 13.57 71.6579 13.383C71.9699 13.1961 72.3322 13.1115 72.6944 13.141C72.9782 13.1196 73.2632 13.1625 73.5282 13.2667C73.7932 13.3708 74.0315 13.5334 74.2254 13.7425C74.4192 13.9516 74.5638 14.2018 74.6482 14.4746C74.7327 14.7474 74.7549 15.0357 74.7132 15.3183V19.1078H73.5622V15.6084C73.5622 14.6676 73.1549 14.1998 72.3036 14.1998C72.1109 14.1908 71.9185 14.2237 71.7397 14.2963C71.5609 14.3689 71.3998 14.4794 71.2675 14.6203C71.1352 14.7612 71.0349 14.9291 70.9733 15.1126C70.9117 15.2961 70.8904 15.4907 70.9109 15.6833V19.1078H69.7598L69.7598 13.254Z" fill="white"/>
<path d="M76.5469 10.9683H77.698V19.1072H76.5469V10.9683Z" fill="white"/>
<path d="M79.2962 16.1795C79.2595 15.7948 79.3034 15.4066 79.425 15.0399C79.5466 14.6732 79.7432 14.336 80.0022 14.0501C80.2612 13.7641 80.5769 13.5356 80.9291 13.3792C81.2812 13.2229 81.662 13.1421 82.0471 13.1421C82.4322 13.1421 82.813 13.2229 83.1652 13.3792C83.5173 13.5356 83.833 13.7641 84.092 14.0501C84.351 14.336 84.5476 14.6732 84.6692 15.0399C84.7908 15.4066 84.8347 15.7948 84.798 16.1795C84.8353 16.5646 84.792 16.9533 84.6707 17.3206C84.5494 17.6878 84.3529 18.0256 84.0939 18.3121C83.8348 18.5987 83.5189 18.8276 83.1664 18.9843C82.8139 19.141 82.4326 19.2219 82.0471 19.2219C81.6616 19.2219 81.2803 19.141 80.9278 18.9843C80.5753 18.8276 80.2594 18.5987 80.0003 18.3121C79.7413 18.0256 79.5448 17.6878 79.4235 17.3206C79.3022 16.9533 79.2589 16.5646 79.2962 16.1795ZM83.6134 16.1795C83.6134 14.9106 83.0454 14.1686 82.0487 14.1686C81.0481 14.1686 80.4853 14.9106 80.4853 16.1795C80.4853 17.4586 81.0482 18.1949 82.0487 18.1949C83.0454 18.1949 83.6134 17.4535 83.6134 16.1795H83.6134Z" fill="white"/>
<path d="M86.0107 17.4534C86.0107 16.3997 86.7925 15.7922 88.1801 15.7059L89.76 15.6145V15.1092C89.76 14.491 89.3527 14.1418 88.5659 14.1418C87.9233 14.1418 87.4781 14.3786 87.3503 14.7925H86.2359C86.3535 13.787 87.2959 13.1421 88.619 13.1421C90.0813 13.1421 90.906 13.8727 90.906 15.1092V19.1089H89.798V18.2862H89.7069C89.522 18.5813 89.2624 18.8219 88.9546 18.9834C88.6469 19.1448 88.3019 19.2214 87.9549 19.2053C87.7101 19.2309 87.4626 19.2047 87.2285 19.1284C86.9943 19.0521 86.7787 18.9274 86.5956 18.7623C86.4124 18.5972 86.2657 18.3955 86.165 18.17C86.0642 17.9446 86.0117 17.7005 86.0107 17.4534ZM89.76 16.9532V16.4638L88.3357 16.5552C87.5325 16.6092 87.1681 16.8834 87.1681 17.3994C87.1681 17.9263 87.6235 18.2329 88.2497 18.2329C88.4332 18.2515 88.6185 18.2329 88.7947 18.1782C88.9709 18.1235 89.1343 18.0338 89.2752 17.9144C89.4161 17.795 89.5316 17.6484 89.6149 17.4832C89.6982 17.3181 89.7475 17.1379 89.76 16.9532Z" fill="white"/>
<path d="M92.4189 16.1778C92.4189 14.3281 93.3664 13.1563 94.84 13.1563C95.2045 13.1395 95.5663 13.2271 95.883 13.4089C96.1998 13.5908 96.4584 13.8594 96.6286 14.1833H96.7147V10.9683H97.8658V19.1072H96.7627V18.1824H96.6717C96.4882 18.5041 96.2206 18.7693 95.8978 18.9494C95.5749 19.1294 95.2091 19.2173 94.84 19.2037C93.3563 19.2038 92.4189 18.032 92.4189 16.1778ZM93.608 16.1778C93.608 17.4194 94.1912 18.1665 95.1664 18.1665C96.1366 18.1665 96.7362 17.4086 96.7362 16.1829C96.7362 14.9629 96.1303 14.1942 95.1664 14.1942C94.1974 14.1942 93.608 14.9464 93.608 16.1778H93.608Z" fill="white"/>
<path d="M102.625 16.1794C102.589 15.7947 102.632 15.4065 102.754 15.0399C102.876 14.6732 103.072 14.336 103.331 14.05C103.59 13.7641 103.906 13.5356 104.258 13.3792C104.61 13.2229 104.991 13.1421 105.376 13.1421C105.761 13.1421 106.142 13.2229 106.494 13.3792C106.846 13.5356 107.162 13.7641 107.421 14.05C107.68 14.336 107.876 14.6732 107.998 15.0399C108.119 15.4065 108.163 15.7947 108.127 16.1794C108.164 16.5645 108.121 16.9531 107.999 17.3204C107.878 17.6877 107.682 18.0255 107.423 18.312C107.164 18.5986 106.848 18.8275 106.495 18.9842C106.143 19.1409 105.761 19.2219 105.376 19.2219C104.99 19.2219 104.609 19.1409 104.257 18.9842C103.904 18.8275 103.588 18.5986 103.329 18.312C103.07 18.0255 102.874 17.6877 102.753 17.3204C102.631 16.9531 102.588 16.5645 102.625 16.1794ZM106.943 16.1794C106.943 14.9105 106.375 14.1685 105.378 14.1685C104.377 14.1685 103.814 14.9105 103.814 16.1794C103.814 17.4585 104.377 18.1948 105.378 18.1948C106.375 18.1948 106.943 17.4534 106.943 16.1794Z" fill="white"/>
<path d="M109.677 13.254H110.785V14.1839H110.871C111.017 13.8499 111.263 13.57 111.575 13.383C111.887 13.1961 112.249 13.1115 112.611 13.141C112.895 13.1196 113.18 13.1625 113.445 13.2667C113.71 13.3708 113.948 13.5334 114.142 13.7425C114.336 13.9516 114.481 14.2018 114.565 14.4746C114.65 14.7474 114.672 15.0357 114.63 15.3183V19.1078H113.479V15.6084C113.479 14.6676 113.072 14.1998 112.221 14.1998C112.028 14.1908 111.836 14.2237 111.657 14.2963C111.478 14.3689 111.317 14.4794 111.185 14.6203C111.052 14.7612 110.952 14.9291 110.89 15.1126C110.829 15.2961 110.807 15.4907 110.828 15.6833V19.1078H109.677V13.254Z" fill="white"/>
<path d="M121.133 11.7969V13.281H122.397V14.2541H121.133V17.2641C121.133 17.8773 121.385 18.1458 121.958 18.1458C122.104 18.1453 122.251 18.1364 122.397 18.1191V19.0814C122.19 19.1186 121.98 19.1383 121.771 19.1405C120.49 19.1405 119.981 18.6885 119.981 17.5599V14.254H119.055V13.2809H119.981V11.7969H121.133Z" fill="white"/>
<path d="M123.966 10.9683H125.107V14.1941H125.198C125.351 13.857 125.604 13.5755 125.922 13.3878C126.24 13.2002 126.608 13.1155 126.976 13.1455C127.259 13.1301 127.541 13.1774 127.803 13.2841C128.065 13.3907 128.3 13.5541 128.492 13.7625C128.684 13.971 128.828 14.2193 128.913 14.4899C128.998 14.7605 129.023 15.0466 128.985 15.3278V19.1072H127.833V15.6128C127.833 14.6778 127.399 14.2043 126.586 14.2043C126.388 14.188 126.189 14.2153 126.002 14.2843C125.816 14.3532 125.647 14.4622 125.507 14.6036C125.368 14.7449 125.26 14.9153 125.193 15.1026C125.125 15.29 125.099 15.4899 125.117 15.6884V19.1072H123.966L123.966 10.9683Z" fill="white"/>
<path d="M135.701 17.525C135.544 18.06 135.205 18.5228 134.743 18.8324C134.281 19.142 133.726 19.2787 133.173 19.2185C132.789 19.2287 132.407 19.1549 132.054 19.0021C131.701 18.8493 131.386 18.6212 131.129 18.3338C130.873 18.0463 130.682 17.7063 130.57 17.3373C130.457 16.9683 130.426 16.5792 130.479 16.1971C130.428 15.8137 130.459 15.4238 130.571 15.0537C130.683 14.6837 130.873 14.3421 131.128 14.0521C131.383 13.7621 131.697 13.5304 132.049 13.3729C132.401 13.2153 132.783 13.1355 133.168 13.1388C134.791 13.1388 135.77 14.2516 135.77 16.0898V16.4929H131.652V16.5576C131.634 16.7724 131.66 16.9887 131.731 17.1925C131.801 17.3962 131.912 17.583 132.059 17.7409C132.205 17.8988 132.382 18.0243 132.58 18.1093C132.777 18.1943 132.99 18.237 133.205 18.2346C133.48 18.2678 133.759 18.218 134.006 18.0917C134.253 17.9653 134.457 17.768 134.593 17.525L135.701 17.525ZM131.652 15.6385H134.598C134.612 15.442 134.585 15.2447 134.519 15.0591C134.453 14.8736 134.35 14.704 134.214 14.5612C134.079 14.4183 133.916 14.3055 133.734 14.2299C133.553 14.1542 133.358 14.1175 133.162 14.122C132.963 14.1195 132.765 14.157 132.581 14.2324C132.396 14.3077 132.229 14.4193 132.088 14.5606C131.947 14.702 131.836 14.8701 131.761 15.0552C131.686 15.2404 131.649 15.4387 131.652 15.6385H131.652Z" fill="white"/>
</g>
<defs>
<clipPath id="clip0_493_351">
<rect width="155" height="52" fill="white"/>
</clipPath>
</defs>
</svg>
