<svg width="20" height="11" viewBox="0 0 20 11" fill="none" xmlns="http://www.w3.org/2000/svg">
<rect width="20" height="11" fill="#E5E5E5"/>
<g id="Frame 1000003522" clip-path="url(#clip0_0_1)">
<rect width="375" height="2027" transform="translate(-206 -1199)" fill="white"/>
<path id="Vector 210" d="M-123.628 84.1326C-84.2783 54.1984 -45.0919 22.7068 -4.40654 -5.49605C4.6509 -11.7746 19.9938 -23.2196 29.3654 -20.4219C34.6855 -18.8337 33.9771 -13.5634 29.907 -7.99101C15.422 11.8404 -6.45109 31.1797 -24.4892 49.2894C-40.3179 65.1809 -56.481 80.9879 -70.9567 97.5859C-72.898 99.8118 -74.7658 102.069 -76.5744 104.341C-77.7564 105.827 -81.3949 109.724 -79.629 108.908C-78.0636 108.184 -76.6708 106.923 -75.2323 105.871C-62.9746 96.905 -50.9255 87.663 -38.7648 78.5684C-10.5676 57.4807 17.7164 36.5135 46.1065 15.6805C56.3911 8.13358 66.6698 0.54379 77.0332 -6.8965C80.7888 -9.59281 86.1806 -14.0395 90.4755 -15.9667C98.1732 -19.4208 91.4237 -0.307437 90.7379 1.0637C76.7958 28.9387 49.9917 57.6693 25.1919 82.6457" stroke="#007BFF" stroke-width="8" stroke-linecap="round"/>
<g id="Rectangle 1034" filter="url(#filter0_d_0_1)">
<rect x="-18" y="-17" width="164" height="177" rx="8" fill="white"/>
</g>
<g id="Group 1000003575">
<g id="Group">
<g id="Group_2">
<g id="Group_3">
<g id="Vector">
<mask id="path-3-inside-1_0_1" fill="white">
<path d="M19.7552 4.79438C19.7139 4.74534 18.7221 3.5792 17.0483 2.39888C15.4965 1.30451 13.0461 0 10.185 0C7.32399 0 4.87354 1.30451 3.32175 2.39888C1.64795 3.57928 0.656256 4.74534 0.614849 4.79442C0.28854 5.18126 0.28854 5.78718 0.614849 6.17399C0.656217 6.22303 1.64795 7.38917 3.32175 8.56949C4.87358 9.66386 7.32399 10.9684 10.185 10.9684C13.0461 10.9684 15.4965 9.66386 17.0483 8.56949C18.7221 7.38909 19.7138 6.22303 19.7552 6.17399C20.0816 5.78718 20.0816 5.18126 19.7552 4.79438ZM19.2702 5.76456C19.2605 5.77603 18.2799 6.9271 16.6683 8.06084C15.1945 9.0977 12.8733 10.3337 10.185 10.3337C7.49663 10.3337 5.17551 9.0977 3.70173 8.06084C2.09016 6.9271 1.10955 5.77606 1.09988 5.76464C0.973823 5.61527 0.973862 5.35314 1.09981 5.20381C1.10955 5.19234 2.09016 4.04127 3.70173 2.90753C5.17547 1.87067 7.49667 0.634675 10.185 0.634675C12.8734 0.634675 15.1945 1.87067 16.6683 2.90753C18.2799 4.04127 19.2605 5.19231 19.2701 5.20369C19.3962 5.35314 19.3962 5.61527 19.2702 5.76456Z"/>
</mask>
<path d="M19.7552 4.79438C19.7139 4.74534 18.7221 3.5792 17.0483 2.39888C15.4965 1.30451 13.0461 0 10.185 0C7.32399 0 4.87354 1.30451 3.32175 2.39888C1.64795 3.57928 0.656256 4.74534 0.614849 4.79442C0.28854 5.18126 0.28854 5.78718 0.614849 6.17399C0.656217 6.22303 1.64795 7.38917 3.32175 8.56949C4.87358 9.66386 7.32399 10.9684 10.185 10.9684C13.0461 10.9684 15.4965 9.66386 17.0483 8.56949C18.7221 7.38909 19.7138 6.22303 19.7552 6.17399C20.0816 5.78718 20.0816 5.18126 19.7552 4.79438ZM19.2702 5.76456C19.2605 5.77603 18.2799 6.9271 16.6683 8.06084C15.1945 9.0977 12.8733 10.3337 10.185 10.3337C7.49663 10.3337 5.17551 9.0977 3.70173 8.06084C2.09016 6.9271 1.10955 5.77606 1.09988 5.76464C0.973823 5.61527 0.973862 5.35314 1.09981 5.20381C1.10955 5.19234 2.09016 4.04127 3.70173 2.90753C5.17547 1.87067 7.49667 0.634675 10.185 0.634675C12.8734 0.634675 15.1945 1.87067 16.6683 2.90753C18.2799 4.04127 19.2605 5.19231 19.2701 5.20369C19.3962 5.35314 19.3962 5.61527 19.2702 5.76456Z" fill="#28A745"/>
<path d="M19.7552 4.79438L22.8128 2.2153L22.8126 2.21511L19.7552 4.79438ZM17.0483 2.39888L14.743 5.66776L14.7431 5.66783L17.0483 2.39888ZM3.32175 2.39888L5.62704 5.66776L5.62705 5.66776L3.32175 2.39888ZM0.614849 4.79442L-2.44232 2.21493L-2.44268 2.21536L0.614849 4.79442ZM0.614849 6.17399L-2.44255 8.75319L-2.4425 8.75326L0.614849 6.17399ZM3.32175 8.56949L5.62701 5.30058L5.62694 5.30054L3.32175 8.56949ZM17.0483 8.56949L14.743 5.30061L14.743 5.30061L17.0483 8.56949ZM19.7552 6.17399L16.6981 3.59444L16.6979 3.59473L19.7552 6.17399ZM19.2702 5.76456L22.3238 8.34833L22.3272 8.34425L19.2702 5.76456ZM16.6683 8.06084L14.3668 4.7893L14.3667 4.78936L16.6683 8.06084ZM3.70173 8.06084L6.00334 4.78936L6.00326 4.7893L3.70173 8.06084ZM1.09988 5.76464L-1.95699 8.34447L-1.95444 8.34749L1.09988 5.76464ZM1.09981 5.20381L-1.9487 2.6141L-1.95331 2.61953L-1.9579 2.62497L1.09981 5.20381ZM3.70173 2.90753L6.00326 6.17906L6.00338 6.17898L3.70173 2.90753ZM16.6683 2.90753L14.3667 6.17901L14.3668 6.17906L16.6683 2.90753ZM19.2701 5.20369L22.3272 2.62418L22.3252 2.62177L19.2701 5.20369ZM22.8126 2.21511C22.6437 2.01494 21.4036 0.575593 19.3535 -0.870079L14.7431 5.66783C16.0407 6.58281 16.784 7.47574 16.6979 7.37364L22.8126 2.21511ZM19.3536 -0.870007C17.4899 -2.18438 14.2255 -4 10.185 -4V4C11.8667 4 13.5032 4.79339 14.743 5.66776L19.3536 -0.870007ZM10.185 -4C6.14456 -4 2.88021 -2.18438 1.01645 -0.870007L5.62705 5.66776C6.86688 4.79339 8.50342 4 10.185 4V-4ZM1.01645 -0.870009C-1.03358 0.575721 -2.27357 2.01494 -2.44232 2.21493L3.67201 7.3739C3.58608 7.47575 4.32948 6.58283 5.62704 5.66776L1.01645 -0.870009ZM-2.44268 2.21536C-4.02555 4.0919 -4.02572 6.8765 -2.44255 8.75319L3.67225 3.59479C4.17365 4.18915 4.37012 4.87875 4.37012 5.48422C4.37012 6.08969 4.17365 6.7792 3.67238 7.37347L-2.44268 2.21536ZM-2.4425 8.75326C-2.27363 8.95343 -1.03353 10.3928 1.01655 11.8384L5.62694 5.30054C4.32943 4.38556 3.58606 3.49263 3.6722 3.59473L-2.4425 8.75326ZM1.01648 11.8384C2.88023 13.1527 6.14454 14.9684 10.185 14.9684V6.96837C8.50343 6.96837 6.86693 6.17499 5.62701 5.30058L1.01648 11.8384ZM10.185 14.9684C14.2255 14.9684 17.4899 13.1527 19.3536 11.8384L14.743 5.30061C13.5032 6.17498 11.8667 6.96837 10.185 6.96837V14.9684ZM19.3536 11.8384C21.4036 10.3927 22.6436 8.95348 22.8126 8.75326L16.6979 3.59473C16.784 3.49258 16.0407 4.3855 14.743 5.30061L19.3536 11.8384ZM22.8123 8.75355C24.396 6.87667 24.3956 4.09182 22.8128 2.2153L16.6977 7.37346C16.1965 6.77928 16 6.08977 16 5.48414C16 4.87849 16.1966 4.18878 16.6981 3.59444L22.8123 8.75355ZM16.2167 3.18079C16.3305 3.04624 15.5989 3.92252 14.3668 4.7893L18.9698 11.3324C20.9609 9.93167 22.1905 8.50581 22.3238 8.34833L16.2167 3.18079ZM14.3667 4.78936C13.1963 5.61277 11.6898 6.33369 10.185 6.33369V14.3337C14.0569 14.3337 17.1927 12.5826 18.9699 11.3323L14.3667 4.78936ZM10.185 6.33369C8.68018 6.33369 7.17373 5.61277 6.00334 4.78936L1.40012 11.3323C3.17729 12.5826 6.31308 14.3337 10.185 14.3337V6.33369ZM6.00326 4.7893C4.77098 3.92239 4.03946 3.0461 4.15421 3.18179L-1.95444 8.34749C-1.82037 8.50603 -0.590656 9.93181 1.4002 11.3324L6.00326 4.7893ZM4.15676 3.18481C4.81746 3.96768 5.00531 4.83726 5.00534 5.48402C5.00537 6.13069 4.81767 6.99991 4.15752 7.78265L-1.9579 2.62497C-2.744 3.55704 -2.9947 4.63198 -2.99466 5.48439C-2.99462 6.3369 -2.74375 7.41222 -1.95699 8.34447L4.15676 3.18481ZM4.14832 7.79351C4.04005 7.92096 4.77237 7.045 6.00326 6.17906L1.4002 -0.364008C-0.592045 1.03754 -1.82096 2.46373 -1.9487 2.6141L4.14832 7.79351ZM6.00338 6.17898C7.17367 5.35562 8.68019 4.63468 10.185 4.63468V-3.36533C6.31314 -3.36533 3.17727 -1.61428 1.40008 -0.363924L6.00338 6.17898ZM10.185 4.63468C11.6898 4.63468 13.1963 5.3556 14.3667 6.17901L18.9699 -0.363952C17.1927 -1.61426 14.0569 -3.36533 10.185 -3.36533V4.63468ZM14.3668 6.17906C15.5992 7.04611 16.3306 7.92245 16.215 7.78562L22.3252 2.62177C22.1903 2.46216 20.9605 1.03643 18.9698 -0.364008L14.3668 6.17906ZM16.213 7.7832C15.5529 7.0009 15.3648 6.13186 15.3647 5.48474C15.3646 4.83784 15.5524 3.968 16.2132 3.18488L22.3272 8.34425C23.114 7.41183 23.3648 6.33628 23.3647 5.48363C23.3646 4.63076 23.1134 3.55593 22.3272 2.62418L16.213 7.7832Z" fill="#28A745" mask="url(#path-3-inside-1_0_1)"/>
</g>
<g id="Vector_2">
<mask id="path-5-inside-2_0_1" fill="white">
<path d="M10.1856 1.18921C7.81735 1.18921 5.89062 3.11593 5.89062 5.48425C5.89062 7.85257 7.81731 9.77929 10.1856 9.77929C12.5539 9.77929 14.4806 7.85257 14.4806 5.48425C14.4806 3.11593 12.5539 1.18921 10.1856 1.18921ZM10.1856 9.14458C8.16735 9.14458 6.52534 7.50257 6.52534 5.48425C6.52534 3.46593 8.16731 1.82392 10.1856 1.82392C11.1706 1.82392 12.0658 2.2151 12.7244 2.85016C12.5362 2.71919 12.3078 2.64221 12.0617 2.64221C11.705 2.64221 11.3854 2.80369 11.1718 3.05723C10.8601 2.93083 10.5243 2.86461 10.1856 2.86461C8.7411 2.86461 7.56595 4.03976 7.56595 5.48425C7.56595 6.92874 8.74114 8.10389 10.1856 8.10389C11.63 8.10389 12.8052 6.92874 12.8052 5.48425C12.8052 5.24152 12.7718 5.00366 12.707 4.77355C13.0192 4.5646 13.2252 4.20888 13.2252 3.80582C13.2252 3.60626 13.1747 3.41835 13.0858 3.25403C13.5621 3.87195 13.8458 4.64553 13.8458 5.48421C13.8459 7.50253 12.2039 9.14458 10.1856 9.14458ZM12.0617 4.96946C12.0754 4.96946 12.0889 4.96889 12.1025 4.96847C12.1474 5.13559 12.1706 5.30819 12.1706 5.48429C12.1706 6.57877 11.2801 7.46925 10.1856 7.46925C9.09114 7.46925 8.20067 6.57881 8.20067 5.48429C8.20067 4.38977 9.09111 3.49933 10.1856 3.49933C10.4343 3.49933 10.6809 3.54618 10.9106 3.63609C10.9025 3.69152 10.8981 3.74819 10.8981 3.80589C10.8981 4.44743 11.4201 4.96946 12.0617 4.96946ZM12.0617 4.33475C11.77 4.33475 11.5328 4.0975 11.5328 3.80582C11.5328 3.51417 11.77 3.27688 12.0617 3.27688C12.3534 3.27688 12.5906 3.51413 12.5906 3.80582C12.5906 4.0975 12.3533 4.33475 12.0617 4.33475Z"/>
</mask>
<path d="M10.1856 1.18921C7.81735 1.18921 5.89062 3.11593 5.89062 5.48425C5.89062 7.85257 7.81731 9.77929 10.1856 9.77929C12.5539 9.77929 14.4806 7.85257 14.4806 5.48425C14.4806 3.11593 12.5539 1.18921 10.1856 1.18921ZM10.1856 9.14458C8.16735 9.14458 6.52534 7.50257 6.52534 5.48425C6.52534 3.46593 8.16731 1.82392 10.1856 1.82392C11.1706 1.82392 12.0658 2.2151 12.7244 2.85016C12.5362 2.71919 12.3078 2.64221 12.0617 2.64221C11.705 2.64221 11.3854 2.80369 11.1718 3.05723C10.8601 2.93083 10.5243 2.86461 10.1856 2.86461C8.7411 2.86461 7.56595 4.03976 7.56595 5.48425C7.56595 6.92874 8.74114 8.10389 10.1856 8.10389C11.63 8.10389 12.8052 6.92874 12.8052 5.48425C12.8052 5.24152 12.7718 5.00366 12.707 4.77355C13.0192 4.5646 13.2252 4.20888 13.2252 3.80582C13.2252 3.60626 13.1747 3.41835 13.0858 3.25403C13.5621 3.87195 13.8458 4.64553 13.8458 5.48421C13.8459 7.50253 12.2039 9.14458 10.1856 9.14458ZM12.0617 4.96946C12.0754 4.96946 12.0889 4.96889 12.1025 4.96847C12.1474 5.13559 12.1706 5.30819 12.1706 5.48429C12.1706 6.57877 11.2801 7.46925 10.1856 7.46925C9.09114 7.46925 8.20067 6.57881 8.20067 5.48429C8.20067 4.38977 9.09111 3.49933 10.1856 3.49933C10.4343 3.49933 10.6809 3.54618 10.9106 3.63609C10.9025 3.69152 10.8981 3.74819 10.8981 3.80589C10.8981 4.44743 11.4201 4.96946 12.0617 4.96946ZM12.0617 4.33475C11.77 4.33475 11.5328 4.0975 11.5328 3.80582C11.5328 3.51417 11.77 3.27688 12.0617 3.27688C12.3534 3.27688 12.5906 3.51413 12.5906 3.80582C12.5906 4.0975 12.3533 4.33475 12.0617 4.33475Z" fill="#28A745"/>
<path d="M12.7244 2.85016L10.4397 6.13345L15.5009 -0.0293391L12.7244 2.85016ZM11.1718 3.05723L9.66857 6.76402L12.3599 7.85543L14.231 5.63436L11.1718 3.05723ZM12.707 4.77355L10.4823 1.44924L8.06916 3.06414L8.85702 5.85887L12.707 4.77355ZM13.0858 3.25403L16.2539 0.812064L9.56774 5.15752L13.0858 3.25403ZM13.8458 5.48421H9.8458V5.48436L13.8458 5.48421ZM12.1025 4.96847L15.9655 3.9307L15.1437 0.871754L11.9779 0.970407L12.1025 4.96847ZM10.9106 3.63609L14.8683 4.21633L15.3295 1.07043L12.3688 -0.0886559L10.9106 3.63609ZM12.5906 3.80582L16.5906 3.80634V3.80582H12.5906ZM10.1856 -2.81079C5.60818 -2.81079 1.89062 0.906816 1.89062 5.48425H9.89062C9.89062 5.32505 10.0265 5.18921 10.1856 5.18921V-2.81079ZM1.89062 5.48425C1.89062 10.0617 5.60812 13.7793 10.1856 13.7793V5.77929C10.0265 5.77929 9.89062 5.64348 9.89062 5.48425H1.89062ZM10.1856 13.7793C14.7631 13.7793 18.4806 10.0617 18.4806 5.48425H10.4806C10.4806 5.64345 10.3447 5.77929 10.1856 5.77929V13.7793ZM18.4806 5.48425C18.4806 0.906792 14.763 -2.81079 10.1856 -2.81079V5.18921C10.3447 5.18921 10.4806 5.32507 10.4806 5.48425H18.4806ZM10.1856 5.14458C10.3765 5.14458 10.5253 5.29345 10.5253 5.48425H2.52534C2.52534 9.71168 5.95818 13.1446 10.1856 13.1446V5.14458ZM10.5253 5.48425C10.5253 5.67502 10.3765 5.82392 10.1856 5.82392V-2.17608C5.95812 -2.17608 2.52534 1.25685 2.52534 5.48425H10.5253ZM10.1856 5.82392C10.1444 5.82392 10.0966 5.81501 10.0513 5.79631C10.0085 5.77867 9.97445 5.75514 9.94803 5.72966L15.5009 -0.0293391C14.1296 -1.35151 12.2511 -2.17608 10.1856 -2.17608V5.82392ZM15.0092 -0.433133C14.1758 -1.01304 13.1551 -1.35779 12.0617 -1.35779V6.64221C11.4605 6.64221 10.8967 6.45143 10.4397 6.13345L15.0092 -0.433133ZM12.0617 -1.35779C10.4702 -1.35779 9.05002 -0.632594 8.11265 0.480107L14.231 5.63436C13.7208 6.23998 12.9397 6.64221 12.0617 6.64221V-1.35779ZM12.675 -0.649556C11.8894 -0.968172 11.0434 -1.13539 10.1856 -1.13539V6.86461C10.0052 6.86461 9.83083 6.82983 9.66857 6.76402L12.675 -0.649556ZM10.1856 -1.13539C6.53196 -1.13539 3.56595 1.83063 3.56595 5.48425H11.566C11.566 6.2489 10.9502 6.86461 10.1856 6.86461V-1.13539ZM3.56595 5.48425C3.56595 9.13791 6.53204 12.1039 10.1856 12.1039V4.10389C10.9502 4.10389 11.566 4.71956 11.566 5.48425H3.56595ZM10.1856 12.1039C13.8391 12.1039 16.8052 9.13791 16.8052 5.48425H8.80522C8.80522 4.71956 9.42094 4.10389 10.1856 4.10389V12.1039ZM16.8052 5.48425C16.8052 4.87174 16.7206 4.26878 16.5569 3.68822L8.85702 5.85887C8.8231 5.73855 8.80522 5.6113 8.80522 5.48425H16.8052ZM14.9316 8.09785C16.3013 7.18124 17.2252 5.60514 17.2252 3.80582H9.22524C9.22524 2.81262 9.7371 1.94795 10.4823 1.44924L14.9316 8.09785ZM17.2252 3.80582C17.2252 2.92289 17.0001 2.0828 16.6039 1.35054L9.56774 5.15752C9.34936 4.75391 9.22524 4.28963 9.22524 3.80582H17.2252ZM9.9177 5.696C9.89774 5.6701 9.87942 5.63784 9.86601 5.59922C9.85205 5.55907 9.8458 5.51869 9.8458 5.48421H17.8458C17.8458 3.72805 17.2485 2.10238 16.2539 0.812064L9.9177 5.696ZM9.8458 5.48436C9.84579 5.29353 9.99466 5.14458 10.1856 5.14458V13.1446C14.4132 13.1446 17.846 9.71152 17.8458 5.48406L9.8458 5.48436ZM12.0617 8.96946C12.1227 8.96946 12.1721 8.96819 12.1979 8.96745C12.2109 8.96707 12.222 8.9667 12.226 8.96657C12.2325 8.96635 12.2295 8.96645 12.227 8.96653L11.9779 0.970407C11.9686 0.970695 11.9589 0.971027 11.9586 0.971035C11.9559 0.971127 11.9601 0.970979 11.9664 0.970799C11.9786 0.970445 12.0144 0.969463 12.0617 0.969463V8.96946ZM8.23942 6.00623C8.19441 5.83867 8.17059 5.66247 8.17059 5.48429H16.1706C16.1706 4.95392 16.1003 4.43251 15.9655 3.9307L8.23942 6.00623ZM8.17059 5.48429C8.17059 4.36968 9.07096 3.46925 10.1856 3.46925V11.4692C13.4893 11.4692 16.1706 8.78786 16.1706 5.48429H8.17059ZM10.1856 3.46925C11.3002 3.46925 12.2007 4.36962 12.2007 5.48429H4.20067C4.20067 8.788 6.88206 11.4692 10.1856 11.4692V3.46925ZM12.2007 5.48429C12.2007 6.59891 11.3002 7.49933 10.1856 7.49933V-0.500672C6.88197 -0.500672 4.20067 2.18063 4.20067 5.48429H12.2007ZM10.1856 7.49933C9.93424 7.49933 9.68638 7.45243 9.45241 7.36083L12.3688 -0.0886559C11.6755 -0.360066 10.9344 -0.500672 10.1856 -0.500672V7.49933ZM6.9529 3.05584C6.9181 3.29324 6.89806 3.54398 6.89806 3.80589H14.8981C14.8981 3.9524 14.8868 4.08981 14.8683 4.21633L6.9529 3.05584ZM6.89806 3.80589C6.89806 6.65665 9.21099 8.96946 12.0617 8.96946V0.969463C13.6291 0.969463 14.8981 2.23821 14.8981 3.80589H6.89806ZM12.0617 0.33475C13.9792 0.33475 15.5328 1.88837 15.5328 3.80582H7.53277C7.53277 6.30664 9.56087 8.33475 12.0617 8.33475V0.33475ZM15.5328 3.80582C15.5328 5.72311 13.9793 7.27688 12.0617 7.27688V-0.723119C9.56068 -0.723119 7.53277 1.30522 7.53277 3.80582H15.5328ZM12.0617 7.27688C10.1443 7.27688 8.59064 5.72327 8.59064 3.80582H16.5906C16.5906 1.30498 14.5625 -0.723119 12.0617 -0.723119V7.27688ZM8.59064 3.80529C8.59089 1.88835 10.1441 0.33475 12.0617 0.33475V8.33475C14.5625 8.33475 16.5903 6.30666 16.5906 3.80634L8.59064 3.80529Z" fill="#28A745" mask="url(#path-5-inside-2_0_1)"/>
</g>
</g>
</g>
</g>
</g>
</g>
<defs>
<filter id="filter0_d_0_1" x="-24.2" y="-23.2" width="176.4" height="189.4" filterUnits="userSpaceOnUse" color-interpolation-filters="sRGB">
<feFlood flood-opacity="0" result="BackgroundImageFix"/>
<feColorMatrix in="SourceAlpha" type="matrix" values="0 0 0 0 0 0 0 0 0 0 0 0 0 0 0 0 0 0 127 0" result="hardAlpha"/>
<feOffset/>
<feGaussianBlur stdDeviation="3.1"/>
<feComposite in2="hardAlpha" operator="out"/>
<feColorMatrix type="matrix" values="0 0 0 0 0 0 0 0 0 0 0 0 0 0 0 0 0 0 0.25 0"/>
<feBlend mode="normal" in2="BackgroundImageFix" result="effect1_dropShadow_0_1"/>
<feBlend mode="normal" in="SourceGraphic" in2="effect1_dropShadow_0_1" result="shape"/>
</filter>
<clipPath id="clip0_0_1">
<rect width="375" height="2027" fill="white" transform="translate(-206 -1199)"/>
</clipPath>
</defs>
</svg>
