<svg width="18" height="17" viewBox="0 0 18 17" fill="none" xmlns="http://www.w3.org/2000/svg">
<path d="M0.534168 2.43851C0.636403 2.07004 1.018 1.85421 1.38647 1.95644L2.95932 2.39282C3.80579 2.62767 4.47567 3.28021 4.70936 4.12607L6.69518 11.3141L6.84131 11.8187C7.42582 12.0368 7.92787 12.4456 8.24646 12.9886L8.53265 12.9002L16.7215 10.7722C17.0916 10.676 17.4696 10.898 17.5658 11.2681C17.662 11.6382 17.4399 12.0162 17.0698 12.1124L8.91125 14.2327L8.6078 14.3264C8.60161 15.4997 7.79206 16.5713 6.56713 16.8896C5.09882 17.2712 3.58958 16.4261 3.19614 15.002C2.80271 13.5778 3.67407 12.114 5.14238 11.7325C5.21515 11.7135 5.28801 11.6977 5.36083 11.6846L3.37456 4.49483C3.27461 4.13302 2.982 3.83621 2.5891 3.7272L1.01625 3.29083C0.647767 3.18859 0.431934 2.807 0.534168 2.43851Z" fill="#797979"/>
<path d="M7.26139 5.6545L7.73634 7.37359C8.18409 8.99426 8.40797 9.80464 9.06621 10.1733C9.72435 10.5418 10.5599 10.3247 12.2309 9.89041L14.0034 9.42982C15.6744 8.99555 16.5099 8.77842 16.89 8.13994C17.27 7.50155 17.0461 6.6912 16.5984 5.07048L16.1235 3.35141C15.6757 1.73068 15.4519 0.920307 14.7936 0.551722C14.1354 0.183136 13.2998 0.400281 11.6288 0.834552L9.85637 1.29517C8.18529 1.72944 7.34981 1.94658 6.96978 2.585C6.58975 3.2234 6.81363 4.03377 7.26139 5.6545Z" fill="#007BFF"/>
</svg>
