<svg width="22" height="22" viewBox="0 0 22 22" fill="none" xmlns="http://www.w3.org/2000/svg">
<path d="M10.6855 11.3068L15.1063 6.88605" stroke="#007BFF" stroke-width="1.3" stroke-miterlimit="10" stroke-linecap="round" stroke-linejoin="round"/>
<path d="M21.0008 3.93888H18.0536V0.991699L15.1064 3.93888V6.88606H18.0536L21.0008 3.93888Z" stroke="#007BFF" stroke-width="1.3" stroke-miterlimit="10" stroke-linecap="round" stroke-linejoin="round"/>
<path d="M10.6844 15.7276C13.126 15.7276 15.1052 13.7483 15.1052 11.3068C15.1052 8.86529 13.126 6.88605 10.6844 6.88605C8.24292 6.88605 6.26367 8.86529 6.26367 11.3068C6.26367 13.7483 8.24292 15.7276 10.6844 15.7276Z" stroke="#007BFF" stroke-width="1.3" stroke-miterlimit="10" stroke-linecap="round" stroke-linejoin="round"/>
<path d="M18.7895 6.14935C19.7474 7.62294 20.2631 9.39125 20.2631 11.3069C20.2631 16.6118 15.9897 20.8853 10.6848 20.8853C5.37986 20.8853 1.10645 16.6118 1.10645 11.3069C1.10645 6.00199 5.37986 1.72858 10.6848 1.72858C12.6005 1.72858 14.3688 2.24433 15.8424 3.20217" stroke="#007BFF" stroke-width="1.3" stroke-miterlimit="10" stroke-linecap="round" stroke-linejoin="round"/>
</svg>
